<svg aria-roledescription="er" role="graphics-document document" viewBox="0 0 650.3856201171875 686" style="max-width: 650.386px; background-color: white;" xmlns:xlink="http://www.w3.org/1999/xlink" xmlns="http://www.w3.org/2000/svg" width="100%" id="my-svg"><style>#my-svg{font-family:"trebuchet ms",verdana,arial,sans-serif;font-size:16px;fill:#000000;}#my-svg .error-icon{fill:#552222;}#my-svg .error-text{fill:#552222;stroke:#552222;}#my-svg .edge-thickness-normal{stroke-width:2px;}#my-svg .edge-thickness-thick{stroke-width:3.5px;}#my-svg .edge-pattern-solid{stroke-dasharray:0;}#my-svg .edge-pattern-dashed{stroke-dasharray:3;}#my-svg .edge-pattern-dotted{stroke-dasharray:2;}#my-svg .marker{fill:#000000;stroke:#000000;}#my-svg .marker.cross{stroke:#000000;}#my-svg svg{font-family:"trebuchet ms",verdana,arial,sans-serif;font-size:16px;}#my-svg .entityBox{fill:#cde498;stroke:#13540c;}#my-svg .attributeBoxOdd{fill:#ffffff;stroke:#13540c;}#my-svg .attributeBoxEven{fill:#f2f2f2;stroke:#13540c;}#my-svg .relationshipLabelBox{fill:hsl(78.1578947368, 58.4615384615%, 84.5098039216%);opacity:0.7;background-color:hsl(78.1578947368, 58.4615384615%, 84.5098039216%);}#my-svg .relationshipLabelBox rect{opacity:0.5;}#my-svg .relationshipLine{stroke:#000000;}#my-svg .entityTitleText{text-anchor:middle;font-size:18px;fill:#000000;}#my-svg #MD_PARENT_START{fill:#f5f5f5!important;stroke:#000000!important;stroke-width:1;}#my-svg #MD_PARENT_END{fill:#f5f5f5!important;stroke:#000000!important;stroke-width:1;}#my-svg :root{--mermaid-font-family:"trebuchet ms",verdana,arial,sans-serif;}</style><g/><defs><marker orient="auto" markerHeight="240" markerWidth="190" refY="7" refX="0" id="MD_PARENT_START"><path d="M 18,7 L9,13 L1,7 L9,1 Z"/></marker></defs><defs><marker orient="auto" markerHeight="28" markerWidth="20" refY="7" refX="19" id="MD_PARENT_END"><path d="M 18,7 L9,13 L1,7 L9,1 Z"/></marker></defs><defs><marker orient="auto" markerHeight="18" markerWidth="18" refY="9" refX="0" id="ONLY_ONE_START"><path d="M9,0 L9,18 M15,0 L15,18" fill="none" stroke="gray"/></marker></defs><defs><marker orient="auto" markerHeight="18" markerWidth="18" refY="9" refX="18" id="ONLY_ONE_END"><path d="M3,0 L3,18 M9,0 L9,18" fill="none" stroke="gray"/></marker></defs><defs><marker orient="auto" markerHeight="18" markerWidth="30" refY="9" refX="0" id="ZERO_OR_ONE_START"><circle r="6" cy="9" cx="21" fill="white" stroke="gray"/><path d="M9,0 L9,18" fill="none" stroke="gray"/></marker></defs><defs><marker orient="auto" markerHeight="18" markerWidth="30" refY="9" refX="30" id="ZERO_OR_ONE_END"><circle r="6" cy="9" cx="9" fill="white" stroke="gray"/><path d="M21,0 L21,18" fill="none" stroke="gray"/></marker></defs><defs><marker orient="auto" markerHeight="36" markerWidth="45" refY="18" refX="18" id="ONE_OR_MORE_START"><path d="M0,18 Q 18,0 36,18 Q 18,36 0,18 M42,9 L42,27" fill="none" stroke="gray"/></marker></defs><defs><marker orient="auto" markerHeight="36" markerWidth="45" refY="18" refX="27" id="ONE_OR_MORE_END"><path d="M3,9 L3,27 M9,18 Q27,0 45,18 Q27,36 9,18" fill="none" stroke="gray"/></marker></defs><defs><marker orient="auto" markerHeight="36" markerWidth="57" refY="18" refX="18" id="ZERO_OR_MORE_START"><circle r="6" cy="18" cx="48" fill="white" stroke="gray"/><path d="M0,18 Q18,0 36,18 Q18,36 0,18" fill="none" stroke="gray"/></marker></defs><defs><marker orient="auto" markerHeight="36" markerWidth="57" refY="18" refX="39" id="ZERO_OR_MORE_END"><circle r="6" cy="18" cx="9" fill="white" stroke="gray"/><path d="M21,18 Q39,0 57,18 Q39,36 21,18" fill="none" stroke="gray"/></marker></defs><path style="stroke: gray; fill: none;" marker-start="url(#ZERO_OR_ONE_START)" marker-end="url(#ONLY_ONE_END)" d="M277.8211135864258,147.43028752010594L243.46260706583658,164.19190626675496C209.1041005452474,180.95352501340395,140.387087504069,214.476762506702,106.02858098347981,248.738381253351C71.67007446289062,283,71.67007446289062,318,71.67007446289062,335.5L71.67007446289062,353" class="er relationshipLine"/><path style="stroke: gray; fill: none;" marker-start="url(#ZERO_OR_MORE_START)" marker-end="url(#ZERO_OR_MORE_END)" d="M356.5967559814453,198L356.5967559814453,206.33333333333334C356.5967559814453,214.66666666666666,356.5967559814453,231.33333333333334,359.59435789991056,248C362.59195981837576,264.6666666666667,368.58716365530626,281.3333333333333,371.58476557377145,289.6666666666667L374.5823674922367,298" class="er relationshipLine"/><path style="stroke: gray; fill: none;" marker-start="url(#ZERO_OR_MORE_START)" marker-end="url(#ZERO_OR_MORE_END)" d="M277.8211135864258,191.17089219699065L268.7409528096517,200.64241016415886C259.6607920328776,210.11392813132707,241.50047047932944,229.05696406566355,232.42030970255533,261.6951486994985C223.34014892578125,294.3333333333333,223.34014892578125,340.6666666666667,223.34014892578125,387C223.34014892578125,433.3333333333333,223.34014892578125,479.6666666666667,259.37588755289715,515.6784569081291C295.411626180013,551.6902471495915,367.4831034342448,577.3804942991829,403.51884206136066,590.2256178739786L439.55458068847656,603.0707414487745" class="er relationshipLine"/><path style="stroke: gray; fill: none;" marker-start="url(#ZERO_OR_ONE_START)" marker-end="url(#ONLY_ONE_END)" d="M438.6111444706539,298L441.6087463891192,289.6666666666667C444.60634830758437,281.3333333333333,450.60155214451487,264.6666666666667,447.6039502260496,248C444.60634830758437,231.33333333333334,432.6159406337235,214.66666666666666,426.620736796793,206.33333333333334L420.6255329598626,198" class="er relationshipLine"/><path style="stroke: gray; fill: none;" marker-start="url(#ZERO_OR_MORE_START)" marker-end="url(#ZERO_OR_MORE_END)" d="M406.5967559814453,476L406.5967559814453,484.3333333333333C406.5967559814453,492.6666666666667,406.5967559814453,509.3333333333333,413.89996712667903,526C421.2031782719127,542.6666666666666,435.80960056238,559.3333333333334,443.11281170761373,567.6666666666666L450.41602285284745,576" class="er relationshipLine"/><path style="stroke: gray; fill: none;" marker-start="url(#ZERO_OR_ONE_START)" marker-end="url(#ONLY_ONE_END)" d="M537.2217840897409,576L545.9937139143024,567.6666666666666C554.7656437388638,559.3333333333334,572.3095033879866,542.6666666666666,581.081433212548,511.1666666666667C589.8533630371094,479.6666666666667,589.8533630371094,433.3333333333333,589.8533630371094,387C589.8533630371094,340.6666666666667,589.8533630371094,294.3333333333333,564.1065355936686,255.82386862200408C538.3597081502279,217.31440391067488,486.8660532633464,186.6288078213498,461.1192258199056,171.28600977668722L435.37239837646484,155.94321173202465" class="er relationshipLine"/><path style="stroke: gray; fill: none;" marker-start="url(#ZERO_OR_ONE_START)" marker-end="url(#ONLY_ONE_END)" d="M540.1521453857422,597.1080783843994L565.1023483276367,585.2567319869995C590.0525512695312,573.4053855895996,639.9529571533203,549.7026927947999,628.7792612711588,520.1245862390498C617.6055653889974,490.54647968329976,545.3577677408854,455.0929593665995,509.2338689168294,437.3661992082493L473.10997009277344,419.63943904989924" class="er relationshipLine"/><g transform="translate(20,353 )" id="entity-Role-8dbdbbc4-0419-5464-aae6-f142fb2ece67"><rect height="68" width="103.34014892578125" y="0" x="0" class="er entityBox"/><text style="dominant-baseline: middle; text-anchor: middle; font-size: 12px;" transform="translate(51.670074462890625,12)" y="0" x="0" id="text-entity-Role-8dbdbbc4-0419-5464-aae6-f142fb2ece67" class="er entityLabel">Role</text><rect height="22" width="51.670074462890625" y="24" x="0" class="er attributeBoxOdd"/><text style="dominant-baseline: middle; font-size: 10.2px;" transform="translate(5,35)" y="0" x="0" id="text-entity-Role-8dbdbbc4-0419-5464-aae6-f142fb2ece67-attr-1-type" class="er entityLabel">STUDENT</text><rect height="22" width="51.670074462890625" y="24" x="51.670074462890625" class="er attributeBoxOdd"/><text style="dominant-baseline: middle; font-size: 10.2px;" transform="translate(56.670074462890625,35)" y="0" x="0" id="text-entity-Role-8dbdbbc4-0419-5464-aae6-f142fb2ece67-attr-1-name" class="er entityLabel">STUDENT</text><rect height="22" width="51.670074462890625" y="46" x="0" class="er attributeBoxEven"/><text style="dominant-baseline: middle; font-size: 10.2px;" transform="translate(5,57)" y="0" x="0" id="text-entity-Role-8dbdbbc4-0419-5464-aae6-f142fb2ece67-attr-2-type" class="er entityLabel">FACULTY</text><rect height="22" width="51.670074462890625" y="46" x="51.670074462890625" class="er attributeBoxEven"/><text style="dominant-baseline: middle; font-size: 10.2px;" transform="translate(56.670074462890625,57)" y="0" x="0" id="text-entity-Role-8dbdbbc4-0419-5464-aae6-f142fb2ece67-attr-2-name" class="er entityLabel">FACULTY</text></g><g transform="translate(277.8211135864258,20 )" id="entity-User-818c511a-4a32-5484-ba70-875d765a9175"><rect height="178" width="157.55128479003906" y="0" x="0" class="er entityBox"/><text style="dominant-baseline: middle; text-anchor: middle; font-size: 12px;" transform="translate(78.77564239501953,12)" y="0" x="0" id="text-entity-User-818c511a-4a32-5484-ba70-875d765a9175" class="er entityLabel">User</text><rect height="22" width="54.095550537109375" y="24" x="0" class="er attributeBoxOdd"/><text style="dominant-baseline: middle; font-size: 10.2px;" transform="translate(5,35)" y="0" x="0" id="text-entity-User-818c511a-4a32-5484-ba70-875d765a9175-attr-1-type" class="er entityLabel">String</text><rect height="22" width="56.243194580078125" y="24" x="54.095550537109375" class="er attributeBoxOdd"/><text style="dominant-baseline: middle; font-size: 10.2px;" transform="translate(59.095550537109375,35)" y="0" x="0" id="text-entity-User-818c511a-4a32-5484-ba70-875d765a9175-attr-1-name" class="er entityLabel">id</text><rect height="22" width="47.21253967285156" y="24" x="110.3387451171875" class="er attributeBoxOdd"/><text style="dominant-baseline: middle; font-size: 10.2px;" transform="translate(115.3387451171875,35)" y="0" x="0" id="text-entity-User-818c511a-4a32-5484-ba70-875d765a9175-attr-1-comment" class="er entityLabel">PK</text><rect height="22" width="54.095550537109375" y="46" x="0" class="er attributeBoxEven"/><text style="dominant-baseline: middle; font-size: 10.2px;" transform="translate(5,57)" y="0" x="0" id="text-entity-User-818c511a-4a32-5484-ba70-875d765a9175-attr-2-type" class="er entityLabel">String</text><rect height="22" width="56.243194580078125" y="46" x="54.095550537109375" class="er attributeBoxEven"/><text style="dominant-baseline: middle; font-size: 10.2px;" transform="translate(59.095550537109375,57)" y="0" x="0" id="text-entity-User-818c511a-4a32-5484-ba70-875d765a9175-attr-2-name" class="er entityLabel">name</text><rect height="22" width="47.21253967285156" y="46" x="110.3387451171875" class="er attributeBoxEven"/><text style="dominant-baseline: middle; font-size: 10.2px;" transform="translate(115.3387451171875,57)" y="0" x="0" id="text-entity-User-818c511a-4a32-5484-ba70-875d765a9175-attr-2-comment" class="er entityLabel"/><rect height="22" width="54.095550537109375" y="68" x="0" class="er attributeBoxOdd"/><text style="dominant-baseline: middle; font-size: 10.2px;" transform="translate(5,79)" y="0" x="0" id="text-entity-User-818c511a-4a32-5484-ba70-875d765a9175-attr-3-type" class="er entityLabel">String</text><rect height="22" width="56.243194580078125" y="68" x="54.095550537109375" class="er attributeBoxOdd"/><text style="dominant-baseline: middle; font-size: 10.2px;" transform="translate(59.095550537109375,79)" y="0" x="0" id="text-entity-User-818c511a-4a32-5484-ba70-875d765a9175-attr-3-name" class="er entityLabel">rollno</text><rect height="22" width="47.21253967285156" y="68" x="110.3387451171875" class="er attributeBoxOdd"/><text style="dominant-baseline: middle; font-size: 10.2px;" transform="translate(115.3387451171875,79)" y="0" x="0" id="text-entity-User-818c511a-4a32-5484-ba70-875d765a9175-attr-3-comment" class="er entityLabel">nullable</text><rect height="22" width="54.095550537109375" y="90" x="0" class="er attributeBoxEven"/><text style="dominant-baseline: middle; font-size: 10.2px;" transform="translate(5,101)" y="0" x="0" id="text-entity-User-818c511a-4a32-5484-ba70-875d765a9175-attr-4-type" class="er entityLabel">String</text><rect height="22" width="56.243194580078125" y="90" x="54.095550537109375" class="er attributeBoxEven"/><text style="dominant-baseline: middle; font-size: 10.2px;" transform="translate(59.095550537109375,101)" y="0" x="0" id="text-entity-User-818c511a-4a32-5484-ba70-875d765a9175-attr-4-name" class="er entityLabel">email</text><rect height="22" width="47.21253967285156" y="90" x="110.3387451171875" class="er attributeBoxEven"/><text style="dominant-baseline: middle; font-size: 10.2px;" transform="translate(115.3387451171875,101)" y="0" x="0" id="text-entity-User-818c511a-4a32-5484-ba70-875d765a9175-attr-4-comment" class="er entityLabel">nullable</text><rect height="22" width="54.095550537109375" y="112" x="0" class="er attributeBoxOdd"/><text style="dominant-baseline: middle; font-size: 10.2px;" transform="translate(5,123)" y="0" x="0" id="text-entity-User-818c511a-4a32-5484-ba70-875d765a9175-attr-5-type" class="er entityLabel">String</text><rect height="22" width="56.243194580078125" y="112" x="54.095550537109375" class="er attributeBoxOdd"/><text style="dominant-baseline: middle; font-size: 10.2px;" transform="translate(59.095550537109375,123)" y="0" x="0" id="text-entity-User-818c511a-4a32-5484-ba70-875d765a9175-attr-5-name" class="er entityLabel">password</text><rect height="22" width="47.21253967285156" y="112" x="110.3387451171875" class="er attributeBoxOdd"/><text style="dominant-baseline: middle; font-size: 10.2px;" transform="translate(115.3387451171875,123)" y="0" x="0" id="text-entity-User-818c511a-4a32-5484-ba70-875d765a9175-attr-5-comment" class="er entityLabel"/><rect height="22" width="54.095550537109375" y="134" x="0" class="er attributeBoxEven"/><text style="dominant-baseline: middle; font-size: 10.2px;" transform="translate(5,145)" y="0" x="0" id="text-entity-User-818c511a-4a32-5484-ba70-875d765a9175-attr-6-type" class="er entityLabel">Role</text><rect height="22" width="56.243194580078125" y="134" x="54.095550537109375" class="er attributeBoxEven"/><text style="dominant-baseline: middle; font-size: 10.2px;" transform="translate(59.095550537109375,145)" y="0" x="0" id="text-entity-User-818c511a-4a32-5484-ba70-875d765a9175-attr-6-name" class="er entityLabel">role</text><rect height="22" width="47.21253967285156" y="134" x="110.3387451171875" class="er attributeBoxEven"/><text style="dominant-baseline: middle; font-size: 10.2px;" transform="translate(115.3387451171875,145)" y="0" x="0" id="text-entity-User-818c511a-4a32-5484-ba70-875d765a9175-attr-6-comment" class="er entityLabel"/><rect height="22" width="54.095550537109375" y="156" x="0" class="er attributeBoxOdd"/><text style="dominant-baseline: middle; font-size: 10.2px;" transform="translate(5,167)" y="0" x="0" id="text-entity-User-818c511a-4a32-5484-ba70-875d765a9175-attr-7-type" class="er entityLabel">DateTime</text><rect height="22" width="56.243194580078125" y="156" x="54.095550537109375" class="er attributeBoxOdd"/><text style="dominant-baseline: middle; font-size: 10.2px;" transform="translate(59.095550537109375,167)" y="0" x="0" id="text-entity-User-818c511a-4a32-5484-ba70-875d765a9175-attr-7-name" class="er entityLabel">createdAt</text><rect height="22" width="47.21253967285156" y="156" x="110.3387451171875" class="er attributeBoxOdd"/><text style="dominant-baseline: middle; font-size: 10.2px;" transform="translate(115.3387451171875,167)" y="0" x="0" id="text-entity-User-818c511a-4a32-5484-ba70-875d765a9175-attr-7-comment" class="er entityLabel"/></g><g transform="translate(340.0835418701172,298 )" id="entity-Class-72a8fe3b-dda1-500b-81e8-fe5cfcc9ca17"><rect height="178" width="133.02642822265625" y="0" x="0" class="er entityBox"/><text style="dominant-baseline: middle; text-anchor: middle; font-size: 12px;" transform="translate(66.51321411132812,12)" y="0" x="0" id="text-entity-Class-72a8fe3b-dda1-500b-81e8-fe5cfcc9ca17" class="er entityLabel">Class</text><rect height="22" width="54.095550537109375" y="24" x="0" class="er attributeBoxOdd"/><text style="dominant-baseline: middle; font-size: 10.2px;" transform="translate(5,35)" y="0" x="0" id="text-entity-Class-72a8fe3b-dda1-500b-81e8-fe5cfcc9ca17-attr-1-type" class="er entityLabel">String</text><rect height="22" width="56.243194580078125" y="24" x="54.095550537109375" class="er attributeBoxOdd"/><text style="dominant-baseline: middle; font-size: 10.2px;" transform="translate(59.095550537109375,35)" y="0" x="0" id="text-entity-Class-72a8fe3b-dda1-500b-81e8-fe5cfcc9ca17-attr-1-name" class="er entityLabel">id</text><rect height="22" width="22.68768310546875" y="24" x="110.3387451171875" class="er attributeBoxOdd"/><text style="dominant-baseline: middle; font-size: 10.2px;" transform="translate(115.3387451171875,35)" y="0" x="0" id="text-entity-Class-72a8fe3b-dda1-500b-81e8-fe5cfcc9ca17-attr-1-comment" class="er entityLabel">PK</text><rect height="22" width="54.095550537109375" y="46" x="0" class="er attributeBoxEven"/><text style="dominant-baseline: middle; font-size: 10.2px;" transform="translate(5,57)" y="0" x="0" id="text-entity-Class-72a8fe3b-dda1-500b-81e8-fe5cfcc9ca17-attr-2-type" class="er entityLabel">Int</text><rect height="22" width="56.243194580078125" y="46" x="54.095550537109375" class="er attributeBoxEven"/><text style="dominant-baseline: middle; font-size: 10.2px;" transform="translate(59.095550537109375,57)" y="0" x="0" id="text-entity-Class-72a8fe3b-dda1-500b-81e8-fe5cfcc9ca17-attr-2-name" class="er entityLabel">sem</text><rect height="22" width="22.68768310546875" y="46" x="110.3387451171875" class="er attributeBoxEven"/><text style="dominant-baseline: middle; font-size: 10.2px;" transform="translate(115.3387451171875,57)" y="0" x="0" id="text-entity-Class-72a8fe3b-dda1-500b-81e8-fe5cfcc9ca17-attr-2-comment" class="er entityLabel"/><rect height="22" width="54.095550537109375" y="68" x="0" class="er attributeBoxOdd"/><text style="dominant-baseline: middle; font-size: 10.2px;" transform="translate(5,79)" y="0" x="0" id="text-entity-Class-72a8fe3b-dda1-500b-81e8-fe5cfcc9ca17-attr-3-type" class="er entityLabel">String</text><rect height="22" width="56.243194580078125" y="68" x="54.095550537109375" class="er attributeBoxOdd"/><text style="dominant-baseline: middle; font-size: 10.2px;" transform="translate(59.095550537109375,79)" y="0" x="0" id="text-entity-Class-72a8fe3b-dda1-500b-81e8-fe5cfcc9ca17-attr-3-name" class="er entityLabel">subject</text><rect height="22" width="22.68768310546875" y="68" x="110.3387451171875" class="er attributeBoxOdd"/><text style="dominant-baseline: middle; font-size: 10.2px;" transform="translate(115.3387451171875,79)" y="0" x="0" id="text-entity-Class-72a8fe3b-dda1-500b-81e8-fe5cfcc9ca17-attr-3-comment" class="er entityLabel"/><rect height="22" width="54.095550537109375" y="90" x="0" class="er attributeBoxEven"/><text style="dominant-baseline: middle; font-size: 10.2px;" transform="translate(5,101)" y="0" x="0" id="text-entity-Class-72a8fe3b-dda1-500b-81e8-fe5cfcc9ca17-attr-4-type" class="er entityLabel">String</text><rect height="22" width="56.243194580078125" y="90" x="54.095550537109375" class="er attributeBoxEven"/><text style="dominant-baseline: middle; font-size: 10.2px;" transform="translate(59.095550537109375,101)" y="0" x="0" id="text-entity-Class-72a8fe3b-dda1-500b-81e8-fe5cfcc9ca17-attr-4-name" class="er entityLabel">userId</text><rect height="22" width="22.68768310546875" y="90" x="110.3387451171875" class="er attributeBoxEven"/><text style="dominant-baseline: middle; font-size: 10.2px;" transform="translate(115.3387451171875,101)" y="0" x="0" id="text-entity-Class-72a8fe3b-dda1-500b-81e8-fe5cfcc9ca17-attr-4-comment" class="er entityLabel"/><rect height="22" width="54.095550537109375" y="112" x="0" class="er attributeBoxOdd"/><text style="dominant-baseline: middle; font-size: 10.2px;" transform="translate(5,123)" y="0" x="0" id="text-entity-Class-72a8fe3b-dda1-500b-81e8-fe5cfcc9ca17-attr-5-type" class="er entityLabel">DateTime</text><rect height="22" width="56.243194580078125" y="112" x="54.095550537109375" class="er attributeBoxOdd"/><text style="dominant-baseline: middle; font-size: 10.2px;" transform="translate(59.095550537109375,123)" y="0" x="0" id="text-entity-Class-72a8fe3b-dda1-500b-81e8-fe5cfcc9ca17-attr-5-name" class="er entityLabel">start</text><rect height="22" width="22.68768310546875" y="112" x="110.3387451171875" class="er attributeBoxOdd"/><text style="dominant-baseline: middle; font-size: 10.2px;" transform="translate(115.3387451171875,123)" y="0" x="0" id="text-entity-Class-72a8fe3b-dda1-500b-81e8-fe5cfcc9ca17-attr-5-comment" class="er entityLabel"/><rect height="22" width="54.095550537109375" y="134" x="0" class="er attributeBoxEven"/><text style="dominant-baseline: middle; font-size: 10.2px;" transform="translate(5,145)" y="0" x="0" id="text-entity-Class-72a8fe3b-dda1-500b-81e8-fe5cfcc9ca17-attr-6-type" class="er entityLabel">DateTime</text><rect height="22" width="56.243194580078125" y="134" x="54.095550537109375" class="er attributeBoxEven"/><text style="dominant-baseline: middle; font-size: 10.2px;" transform="translate(59.095550537109375,145)" y="0" x="0" id="text-entity-Class-72a8fe3b-dda1-500b-81e8-fe5cfcc9ca17-attr-6-name" class="er entityLabel">duration</text><rect height="22" width="22.68768310546875" y="134" x="110.3387451171875" class="er attributeBoxEven"/><text style="dominant-baseline: middle; font-size: 10.2px;" transform="translate(115.3387451171875,145)" y="0" x="0" id="text-entity-Class-72a8fe3b-dda1-500b-81e8-fe5cfcc9ca17-attr-6-comment" class="er entityLabel"/><rect height="22" width="54.095550537109375" y="156" x="0" class="er attributeBoxOdd"/><text style="dominant-baseline: middle; font-size: 10.2px;" transform="translate(5,167)" y="0" x="0" id="text-entity-Class-72a8fe3b-dda1-500b-81e8-fe5cfcc9ca17-attr-7-type" class="er entityLabel">DateTime</text><rect height="22" width="56.243194580078125" y="156" x="54.095550537109375" class="er attributeBoxOdd"/><text style="dominant-baseline: middle; font-size: 10.2px;" transform="translate(59.095550537109375,167)" y="0" x="0" id="text-entity-Class-72a8fe3b-dda1-500b-81e8-fe5cfcc9ca17-attr-7-name" class="er entityLabel">createdAt</text><rect height="22" width="22.68768310546875" y="156" x="110.3387451171875" class="er attributeBoxOdd"/><text style="dominant-baseline: middle; font-size: 10.2px;" transform="translate(115.3387451171875,167)" y="0" x="0" id="text-entity-Class-72a8fe3b-dda1-500b-81e8-fe5cfcc9ca17-attr-7-comment" class="er entityLabel"/></g><g transform="translate(439.55458068847656,576 )" id="entity-Attendence-a7f8d9b0-9fae-59a6-9087-f0dd5dcd4fa7"><rect height="90" width="100.59756469726562" y="0" x="0" class="er entityBox"/><text style="dominant-baseline: middle; text-anchor: middle; font-size: 12px;" transform="translate(50.29878234863281,12)" y="0" x="0" id="text-entity-Attendence-a7f8d9b0-9fae-59a6-9087-f0dd5dcd4fa7" class="er entityLabel">Attendence</text><rect height="22" width="37.39605712890625" y="24" x="0" class="er attributeBoxOdd"/><text style="dominant-baseline: middle; font-size: 10.2px;" transform="translate(5,35)" y="0" x="0" id="text-entity-Attendence-a7f8d9b0-9fae-59a6-9087-f0dd5dcd4fa7-attr-1-type" class="er entityLabel">String</text><rect height="22" width="40.513824462890625" y="24" x="37.39605712890625" class="er attributeBoxOdd"/><text style="dominant-baseline: middle; font-size: 10.2px;" transform="translate(42.39605712890625,35)" y="0" x="0" id="text-entity-Attendence-a7f8d9b0-9fae-59a6-9087-f0dd5dcd4fa7-attr-1-name" class="er entityLabel">id</text><rect height="22" width="22.68768310546875" y="24" x="77.90988159179688" class="er attributeBoxOdd"/><text style="dominant-baseline: middle; font-size: 10.2px;" transform="translate(82.90988159179688,35)" y="0" x="0" id="text-entity-Attendence-a7f8d9b0-9fae-59a6-9087-f0dd5dcd4fa7-attr-1-comment" class="er entityLabel">PK</text><rect height="22" width="37.39605712890625" y="46" x="0" class="er attributeBoxEven"/><text style="dominant-baseline: middle; font-size: 10.2px;" transform="translate(5,57)" y="0" x="0" id="text-entity-Attendence-a7f8d9b0-9fae-59a6-9087-f0dd5dcd4fa7-attr-2-type" class="er entityLabel">String</text><rect height="22" width="40.513824462890625" y="46" x="37.39605712890625" class="er attributeBoxEven"/><text style="dominant-baseline: middle; font-size: 10.2px;" transform="translate(42.39605712890625,57)" y="0" x="0" id="text-entity-Attendence-a7f8d9b0-9fae-59a6-9087-f0dd5dcd4fa7-attr-2-name" class="er entityLabel">userId</text><rect height="22" width="22.68768310546875" y="46" x="77.90988159179688" class="er attributeBoxEven"/><text style="dominant-baseline: middle; font-size: 10.2px;" transform="translate(82.90988159179688,57)" y="0" x="0" id="text-entity-Attendence-a7f8d9b0-9fae-59a6-9087-f0dd5dcd4fa7-attr-2-comment" class="er entityLabel"/><rect height="22" width="37.39605712890625" y="68" x="0" class="er attributeBoxOdd"/><text style="dominant-baseline: middle; font-size: 10.2px;" transform="translate(5,79)" y="0" x="0" id="text-entity-Attendence-a7f8d9b0-9fae-59a6-9087-f0dd5dcd4fa7-attr-3-type" class="er entityLabel">String</text><rect height="22" width="40.513824462890625" y="68" x="37.39605712890625" class="er attributeBoxOdd"/><text style="dominant-baseline: middle; font-size: 10.2px;" transform="translate(42.39605712890625,79)" y="0" x="0" id="text-entity-Attendence-a7f8d9b0-9fae-59a6-9087-f0dd5dcd4fa7-attr-3-name" class="er entityLabel">classId</text><rect height="22" width="22.68768310546875" y="68" x="77.90988159179688" class="er attributeBoxOdd"/><text style="dominant-baseline: middle; font-size: 10.2px;" transform="translate(82.90988159179688,79)" y="0" x="0" id="text-entity-Attendence-a7f8d9b0-9fae-59a6-9087-f0dd5dcd4fa7-attr-3-comment" class="er entityLabel"/></g><rect height="14" width="55.66796875" y="214.6772918701172" x="111.87437438964844" class="er relationshipLabelBox"/><text style="text-anchor: middle; dominant-baseline: middle; font-size: 12px;" y="221.6772918701172" x="139.70835876464844" id="rel1" class="er relationshipLabel">enum:role</text><rect height="14" width="26.87890625" y="242.0327911376953" x="346.3449401855469" class="er relationshipLabelBox"/><text style="text-anchor: middle; dominant-baseline: middle; font-size: 12px;" y="249.0327911376953" x="359.7843933105469" id="rel2" class="er relationshipLabel">Class</text><rect height="14" width="63.423828125" y="444.0384521484375" x="195.33004760742188" class="er relationshipLabelBox"/><text style="text-anchor: middle; dominant-baseline: middle; font-size: 12px;" y="451.0384521484375" x="227.04196166992188" id="rel3" class="er relationshipLabel">Attendence</text><rect height="14" width="23.958984375" y="238.14222717285156" x="435.0244445800781" class="er relationshipLabelBox"/><text style="text-anchor: middle; dominant-baseline: middle; font-size: 12px;" y="245.14222717285156" x="447.0039367675781" id="rel4" class="er relationshipLabel">user</text><rect height="14" width="63.423828125" y="524.047607421875" x="384.6126403808594" class="er relationshipLabelBox"/><text style="text-anchor: middle; dominant-baseline: middle; font-size: 12px;" y="531.047607421875" x="416.3245544433594" id="rel5" class="er relationshipLabel">Attendence</text><rect height="14" width="23.958984375" y="332.154052734375" x="576.8018798828125" class="er relationshipLabelBox"/><text style="text-anchor: middle; dominant-baseline: middle; font-size: 12px;" y="339.154052734375" x="588.7813720703125" id="rel6" class="er relationshipLabel">user</text><rect height="14" width="25.642578125" y="489.565185546875" x="596.9013671875" class="er relationshipLabelBox"/><text style="text-anchor: middle; dominant-baseline: middle; font-size: 12px;" y="496.565185546875" x="609.72265625" id="rel7" class="er relationshipLabel">class</text></svg>