<svg aria-roledescription="er" role="graphics-document document" viewBox="0 0 487.151123046875 832" style="max-width: 487.151px; background-color: white;" xmlns:xlink="http://www.w3.org/1999/xlink" xmlns="http://www.w3.org/2000/svg" width="100%" id="my-svg"><style>#my-svg{font-family:"trebuchet ms",verdana,arial,sans-serif;font-size:16px;fill:#000000;}#my-svg .error-icon{fill:#552222;}#my-svg .error-text{fill:#552222;stroke:#552222;}#my-svg .edge-thickness-normal{stroke-width:2px;}#my-svg .edge-thickness-thick{stroke-width:3.5px;}#my-svg .edge-pattern-solid{stroke-dasharray:0;}#my-svg .edge-pattern-dashed{stroke-dasharray:3;}#my-svg .edge-pattern-dotted{stroke-dasharray:2;}#my-svg .marker{fill:#000000;stroke:#000000;}#my-svg .marker.cross{stroke:#000000;}#my-svg svg{font-family:"trebuchet ms",verdana,arial,sans-serif;font-size:16px;}#my-svg .entityBox{fill:#cde498;stroke:#13540c;}#my-svg .attributeBoxOdd{fill:#ffffff;stroke:#13540c;}#my-svg .attributeBoxEven{fill:#f2f2f2;stroke:#13540c;}#my-svg .relationshipLabelBox{fill:hsl(78.1578947368, 58.4615384615%, 84.5098039216%);opacity:0.7;background-color:hsl(78.1578947368, 58.4615384615%, 84.5098039216%);}#my-svg .relationshipLabelBox rect{opacity:0.5;}#my-svg .relationshipLine{stroke:#000000;}#my-svg .entityTitleText{text-anchor:middle;font-size:18px;fill:#000000;}#my-svg #MD_PARENT_START{fill:#f5f5f5!important;stroke:#000000!important;stroke-width:1;}#my-svg #MD_PARENT_END{fill:#f5f5f5!important;stroke:#000000!important;stroke-width:1;}#my-svg :root{--mermaid-font-family:"trebuchet ms",verdana,arial,sans-serif;}</style><g/><defs><marker orient="auto" markerHeight="240" markerWidth="190" refY="7" refX="0" id="MD_PARENT_START"><path d="M 18,7 L9,13 L1,7 L9,1 Z"/></marker></defs><defs><marker orient="auto" markerHeight="28" markerWidth="20" refY="7" refX="19" id="MD_PARENT_END"><path d="M 18,7 L9,13 L1,7 L9,1 Z"/></marker></defs><defs><marker orient="auto" markerHeight="18" markerWidth="18" refY="9" refX="0" id="ONLY_ONE_START"><path d="M9,0 L9,18 M15,0 L15,18" fill="none" stroke="gray"/></marker></defs><defs><marker orient="auto" markerHeight="18" markerWidth="18" refY="9" refX="18" id="ONLY_ONE_END"><path d="M3,0 L3,18 M9,0 L9,18" fill="none" stroke="gray"/></marker></defs><defs><marker orient="auto" markerHeight="18" markerWidth="30" refY="9" refX="0" id="ZERO_OR_ONE_START"><circle r="6" cy="9" cx="21" fill="white" stroke="gray"/><path d="M9,0 L9,18" fill="none" stroke="gray"/></marker></defs><defs><marker orient="auto" markerHeight="18" markerWidth="30" refY="9" refX="30" id="ZERO_OR_ONE_END"><circle r="6" cy="9" cx="9" fill="white" stroke="gray"/><path d="M21,0 L21,18" fill="none" stroke="gray"/></marker></defs><defs><marker orient="auto" markerHeight="36" markerWidth="45" refY="18" refX="18" id="ONE_OR_MORE_START"><path d="M0,18 Q 18,0 36,18 Q 18,36 0,18 M42,9 L42,27" fill="none" stroke="gray"/></marker></defs><defs><marker orient="auto" markerHeight="36" markerWidth="45" refY="18" refX="27" id="ONE_OR_MORE_END"><path d="M3,9 L3,27 M9,18 Q27,0 45,18 Q27,36 9,18" fill="none" stroke="gray"/></marker></defs><defs><marker orient="auto" markerHeight="36" markerWidth="57" refY="18" refX="18" id="ZERO_OR_MORE_START"><circle r="6" cy="18" cx="48" fill="white" stroke="gray"/><path d="M0,18 Q18,0 36,18 Q18,36 0,18" fill="none" stroke="gray"/></marker></defs><defs><marker orient="auto" markerHeight="36" markerWidth="57" refY="18" refX="39" id="ZERO_OR_MORE_END"><circle r="6" cy="18" cx="9" fill="white" stroke="gray"/><path d="M21,18 Q39,0 57,18 Q39,36 21,18" fill="none" stroke="gray"/></marker></defs><path style="stroke: gray; fill: none;" marker-start="url(#ZERO_OR_MORE_START)" marker-end="url(#ZERO_OR_MORE_END)" d="M156.39036133175804,88L147.03509292905292,96.33333333333333C137.6798245263478,104.66666666666667,118.96928772093759,121.33333333333333,115.26756281339239,138C111.5658379058472,154.66666666666666,122.87292489616705,171.33333333333334,128.52646839132697,179.66666666666666L134.1800118864869,188" class="er relationshipLine"/><path style="stroke: gray; fill: none;" marker-start="url(#ZERO_OR_MORE_START)" marker-end="url(#ZERO_OR_MORE_END)" d="M102.48515193582439,521L109.49760268231948,503.5C116.51005342881456,486,130.53495492180474,451,140.54500758676508,425.1666666666667C150.5550602517254,399.3333333333333,156.55026408865584,382.6666666666667,159.54786600712106,374.3333333333333L162.54546792558628,366" class="er relationshipLine"/><path style="stroke: gray; fill: none;" marker-start="url(#ZERO_OR_MORE_START)" marker-end="url(#ZERO_OR_MORE_END)" d="M355.97007933117095,744L365.89071425180583,735.6666666666666C375.81134917244077,727.3333333333334,395.6526190137106,710.6666666666666,398.5352481054881,692.5505052312216C401.4178771972656,674.4343437957764,387.3418655395508,654.8686875915528,380.30385971069336,645.085859489441L373.26585388183594,635.3030313873292" class="er relationshipLine"/><path style="stroke: gray; fill: none;" marker-start="url(#ZERO_OR_ONE_START)" marker-end="url(#ONLY_ONE_END)" d="M198.20878886490416,188L198.5504492066747,179.66666666666666C198.8921095484452,171.33333333333334,199.57543023198627,154.66666666666666,199.35172405582702,138C199.12801787966774,121.33333333333333,197.99728484380816,104.66666666666667,197.4319183258783,96.33333333333333L196.86655180794853,88" class="er relationshipLine"/><path style="stroke: gray; fill: none;" marker-start="url(#ZERO_OR_ONE_START)" marker-end="url(#ONLY_ONE_END)" d="M123.37995529174805,342.96004170735677L110.24327214558919,355.133368089464C97.10658899943034,367.30669447157123,70.83322270711263,391.6533472357856,63.274016872012645,421.3266736178928C55.71481103691266,451,66.86976565903039,486,72.44724297008926,503.5L78.02472028114813,521" class="er relationshipLine"/><path style="stroke: gray; fill: none;" marker-start="url(#ZERO_OR_MORE_START)" marker-end="url(#ZERO_OR_MORE_END)" d="M235.10061360091615,366L238.89656464830577,374.3333333333333C242.69251569569542,382.6666666666667,250.28441779047466,399.3333333333333,257.5346595434834,416C264.7849012964921,432.6666666666667,271.6934827077303,449.3333333333333,275.1477734133494,457.6666666666667L278.6020641189685,466" class="er relationshipLine"/><path style="stroke: gray; fill: none;" marker-start="url(#ZERO_OR_ONE_START)" marker-end="url(#ONLY_ONE_END)" d="M373.26585388183594,474.6969686126709L380.30385971069336,464.9141405105591C387.3418655395508,455.13131240844723,401.4178771972656,435.5656562042236,383.4968611399333,410.07993251892617C365.5758450826009,384.5942088336287,315.6578013102214,353.18841766725745,290.69877942403156,337.4855220840719L265.7397575378418,321.78262650088624" class="er relationshipLine"/><path style="stroke: gray; fill: none;" marker-start="url(#ZERO_OR_ONE_START)" marker-end="url(#ONLY_ONE_END)" d="M315.49388885498047,644L315.49388885498047,652.3333333333334C315.49388885498047,660.6666666666666,315.49388885498047,677.3333333333334,315.49388885498047,694C315.49388885498047,710.6666666666666,315.49388885498047,727.3333333333334,315.49388885498047,735.6666666666666L315.49388885498047,744" class="er relationshipLine"/><g transform="translate(136.6808204650879,20 )" id="entity-EventType-4e6735da-6bbe-572c-967f-a4d108705637"><rect height="68" width="115.75807189941406" y="0" x="0" class="er entityBox"/><text style="dominant-baseline: middle; text-anchor: middle; font-size: 12px;" transform="translate(57.87903594970703,12)" y="0" x="0" id="text-entity-EventType-4e6735da-6bbe-572c-967f-a4d108705637" class="er entityLabel">EventType</text><rect height="22" width="37.39605712890625" y="24" x="0" class="er attributeBoxOdd"/><text style="dominant-baseline: middle; font-size: 10.2px;" transform="translate(5,35)" y="0" x="0" id="text-entity-EventType-4e6735da-6bbe-572c-967f-a4d108705637-attr-1-type" class="er entityLabel">Int</text><rect height="22" width="55.67433166503906" y="24" x="37.39605712890625" class="er attributeBoxOdd"/><text style="dominant-baseline: middle; font-size: 10.2px;" transform="translate(42.39605712890625,35)" y="0" x="0" id="text-entity-EventType-4e6735da-6bbe-572c-967f-a4d108705637-attr-1-name" class="er entityLabel">type_id</text><rect height="22" width="22.68768310546875" y="24" x="93.07038879394531" class="er attributeBoxOdd"/><text style="dominant-baseline: middle; font-size: 10.2px;" transform="translate(98.07038879394531,35)" y="0" x="0" id="text-entity-EventType-4e6735da-6bbe-572c-967f-a4d108705637-attr-1-comment" class="er entityLabel">PK</text><rect height="22" width="37.39605712890625" y="46" x="0" class="er attributeBoxEven"/><text style="dominant-baseline: middle; font-size: 10.2px;" transform="translate(5,57)" y="0" x="0" id="text-entity-EventType-4e6735da-6bbe-572c-967f-a4d108705637-attr-2-type" class="er entityLabel">String</text><rect height="22" width="55.67433166503906" y="46" x="37.39605712890625" class="er attributeBoxEven"/><text style="dominant-baseline: middle; font-size: 10.2px;" transform="translate(42.39605712890625,57)" y="0" x="0" id="text-entity-EventType-4e6735da-6bbe-572c-967f-a4d108705637-attr-2-name" class="er entityLabel">type_title</text><rect height="22" width="22.68768310546875" y="46" x="93.07038879394531" class="er attributeBoxEven"/><text style="dominant-baseline: middle; font-size: 10.2px;" transform="translate(98.07038879394531,57)" y="0" x="0" id="text-entity-EventType-4e6735da-6bbe-572c-967f-a4d108705637-attr-2-comment" class="er entityLabel"/></g><g transform="translate(20,521 )" id="entity-Location-4c7ff6f7-30f4-5019-8472-285cd3f624cb"><rect height="68" width="137.721923828125" y="0" x="0" class="er entityBox"/><text style="dominant-baseline: middle; text-anchor: middle; font-size: 12px;" transform="translate(68.8609619140625,12)" y="0" x="0" id="text-entity-Location-4c7ff6f7-30f4-5019-8472-285cd3f624cb" class="er entityLabel">Location</text><rect height="22" width="37.39605712890625" y="24" x="0" class="er attributeBoxOdd"/><text style="dominant-baseline: middle; font-size: 10.2px;" transform="translate(5,35)" y="0" x="0" id="text-entity-Location-4c7ff6f7-30f4-5019-8472-285cd3f624cb-attr-1-type" class="er entityLabel">Int</text><rect height="22" width="77.63818359375" y="24" x="37.39605712890625" class="er attributeBoxOdd"/><text style="dominant-baseline: middle; font-size: 10.2px;" transform="translate(42.39605712890625,35)" y="0" x="0" id="text-entity-Location-4c7ff6f7-30f4-5019-8472-285cd3f624cb-attr-1-name" class="er entityLabel">location_id</text><rect height="22" width="22.68768310546875" y="24" x="115.03424072265625" class="er attributeBoxOdd"/><text style="dominant-baseline: middle; font-size: 10.2px;" transform="translate(120.03424072265625,35)" y="0" x="0" id="text-entity-Location-4c7ff6f7-30f4-5019-8472-285cd3f624cb-attr-1-comment" class="er entityLabel">PK</text><rect height="22" width="37.39605712890625" y="46" x="0" class="er attributeBoxEven"/><text style="dominant-baseline: middle; font-size: 10.2px;" transform="translate(5,57)" y="0" x="0" id="text-entity-Location-4c7ff6f7-30f4-5019-8472-285cd3f624cb-attr-2-type" class="er entityLabel">String</text><rect height="22" width="77.63818359375" y="46" x="37.39605712890625" class="er attributeBoxEven"/><text style="dominant-baseline: middle; font-size: 10.2px;" transform="translate(42.39605712890625,57)" y="0" x="0" id="text-entity-Location-4c7ff6f7-30f4-5019-8472-285cd3f624cb-attr-2-name" class="er entityLabel">location_name</text><rect height="22" width="22.68768310546875" y="46" x="115.03424072265625" class="er attributeBoxEven"/><text style="dominant-baseline: middle; font-size: 10.2px;" transform="translate(120.03424072265625,57)" y="0" x="0" id="text-entity-Location-4c7ff6f7-30f4-5019-8472-285cd3f624cb-attr-2-comment" class="er entityLabel"/></g><g transform="translate(249.4767608642578,744 )" id="entity-Branch-ba99d1f8-3f38-5cfd-ac51-a34efed4ab2b"><rect height="68" width="132.0342559814453" y="0" x="0" class="er entityBox"/><text style="dominant-baseline: middle; text-anchor: middle; font-size: 12px;" transform="translate(66.01712799072266,12)" y="0" x="0" id="text-entity-Branch-ba99d1f8-3f38-5cfd-ac51-a34efed4ab2b" class="er entityLabel">Branch</text><rect height="22" width="37.39605712890625" y="24" x="0" class="er attributeBoxOdd"/><text style="dominant-baseline: middle; font-size: 10.2px;" transform="translate(5,35)" y="0" x="0" id="text-entity-Branch-ba99d1f8-3f38-5cfd-ac51-a34efed4ab2b-attr-1-type" class="er entityLabel">Int</text><rect height="22" width="71.95051574707031" y="24" x="37.39605712890625" class="er attributeBoxOdd"/><text style="dominant-baseline: middle; font-size: 10.2px;" transform="translate(42.39605712890625,35)" y="0" x="0" id="text-entity-Branch-ba99d1f8-3f38-5cfd-ac51-a34efed4ab2b-attr-1-name" class="er entityLabel">branch_id</text><rect height="22" width="22.68768310546875" y="24" x="109.34657287597656" class="er attributeBoxOdd"/><text style="dominant-baseline: middle; font-size: 10.2px;" transform="translate(114.34657287597656,35)" y="0" x="0" id="text-entity-Branch-ba99d1f8-3f38-5cfd-ac51-a34efed4ab2b-attr-1-comment" class="er entityLabel">PK</text><rect height="22" width="37.39605712890625" y="46" x="0" class="er attributeBoxEven"/><text style="dominant-baseline: middle; font-size: 10.2px;" transform="translate(5,57)" y="0" x="0" id="text-entity-Branch-ba99d1f8-3f38-5cfd-ac51-a34efed4ab2b-attr-2-type" class="er entityLabel">String</text><rect height="22" width="71.95051574707031" y="46" x="37.39605712890625" class="er attributeBoxEven"/><text style="dominant-baseline: middle; font-size: 10.2px;" transform="translate(42.39605712890625,57)" y="0" x="0" id="text-entity-Branch-ba99d1f8-3f38-5cfd-ac51-a34efed4ab2b-attr-2-name" class="er entityLabel">branch_name</text><rect height="22" width="22.68768310546875" y="46" x="109.34657287597656" class="er attributeBoxEven"/><text style="dominant-baseline: middle; font-size: 10.2px;" transform="translate(114.34657287597656,57)" y="0" x="0" id="text-entity-Branch-ba99d1f8-3f38-5cfd-ac51-a34efed4ab2b-attr-2-comment" class="er entityLabel"/></g><g transform="translate(123.37995529174805,188 )" id="entity-Event-5fcfcec5-0af7-59ba-bebb-bb0a822c8afa"><rect height="178" width="142.35980224609375" y="0" x="0" class="er entityBox"/><text style="dominant-baseline: middle; text-anchor: middle; font-size: 12px;" transform="translate(71.17990112304688,12)" y="0" x="0" id="text-entity-Event-5fcfcec5-0af7-59ba-bebb-bb0a822c8afa" class="er entityLabel">Event</text><rect height="22" width="54.095550537109375" y="24" x="0" class="er attributeBoxOdd"/><text style="dominant-baseline: middle; font-size: 10.2px;" transform="translate(5,35)" y="0" x="0" id="text-entity-Event-5fcfcec5-0af7-59ba-bebb-bb0a822c8afa-attr-1-type" class="er entityLabel">Int</text><rect height="22" width="65.57656860351562" y="24" x="54.095550537109375" class="er attributeBoxOdd"/><text style="dominant-baseline: middle; font-size: 10.2px;" transform="translate(59.095550537109375,35)" y="0" x="0" id="text-entity-Event-5fcfcec5-0af7-59ba-bebb-bb0a822c8afa-attr-1-name" class="er entityLabel">event_id</text><rect height="22" width="22.68768310546875" y="24" x="119.672119140625" class="er attributeBoxOdd"/><text style="dominant-baseline: middle; font-size: 10.2px;" transform="translate(124.672119140625,35)" y="0" x="0" id="text-entity-Event-5fcfcec5-0af7-59ba-bebb-bb0a822c8afa-attr-1-comment" class="er entityLabel">PK</text><rect height="22" width="54.095550537109375" y="46" x="0" class="er attributeBoxEven"/><text style="dominant-baseline: middle; font-size: 10.2px;" transform="translate(5,57)" y="0" x="0" id="text-entity-Event-5fcfcec5-0af7-59ba-bebb-bb0a822c8afa-attr-2-type" class="er entityLabel">String</text><rect height="22" width="65.57656860351562" y="46" x="54.095550537109375" class="er attributeBoxEven"/><text style="dominant-baseline: middle; font-size: 10.2px;" transform="translate(59.095550537109375,57)" y="0" x="0" id="text-entity-Event-5fcfcec5-0af7-59ba-bebb-bb0a822c8afa-attr-2-name" class="er entityLabel">event_title</text><rect height="22" width="22.68768310546875" y="46" x="119.672119140625" class="er attributeBoxEven"/><text style="dominant-baseline: middle; font-size: 10.2px;" transform="translate(124.672119140625,57)" y="0" x="0" id="text-entity-Event-5fcfcec5-0af7-59ba-bebb-bb0a822c8afa-attr-2-comment" class="er entityLabel"/><rect height="22" width="54.095550537109375" y="68" x="0" class="er attributeBoxOdd"/><text style="dominant-baseline: middle; font-size: 10.2px;" transform="translate(5,79)" y="0" x="0" id="text-entity-Event-5fcfcec5-0af7-59ba-bebb-bb0a822c8afa-attr-3-type" class="er entityLabel">Int</text><rect height="22" width="65.57656860351562" y="68" x="54.095550537109375" class="er attributeBoxOdd"/><text style="dominant-baseline: middle; font-size: 10.2px;" transform="translate(59.095550537109375,79)" y="0" x="0" id="text-entity-Event-5fcfcec5-0af7-59ba-bebb-bb0a822c8afa-attr-3-name" class="er entityLabel">event_price</text><rect height="22" width="22.68768310546875" y="68" x="119.672119140625" class="er attributeBoxOdd"/><text style="dominant-baseline: middle; font-size: 10.2px;" transform="translate(124.672119140625,79)" y="0" x="0" id="text-entity-Event-5fcfcec5-0af7-59ba-bebb-bb0a822c8afa-attr-3-comment" class="er entityLabel"/><rect height="22" width="54.095550537109375" y="90" x="0" class="er attributeBoxEven"/><text style="dominant-baseline: middle; font-size: 10.2px;" transform="translate(5,101)" y="0" x="0" id="text-entity-Event-5fcfcec5-0af7-59ba-bebb-bb0a822c8afa-attr-4-type" class="er entityLabel">Int</text><rect height="22" width="65.57656860351562" y="90" x="54.095550537109375" class="er attributeBoxEven"/><text style="dominant-baseline: middle; font-size: 10.2px;" transform="translate(59.095550537109375,101)" y="0" x="0" id="text-entity-Event-5fcfcec5-0af7-59ba-bebb-bb0a822c8afa-attr-4-name" class="er entityLabel">participants</text><rect height="22" width="22.68768310546875" y="90" x="119.672119140625" class="er attributeBoxEven"/><text style="dominant-baseline: middle; font-size: 10.2px;" transform="translate(124.672119140625,101)" y="0" x="0" id="text-entity-Event-5fcfcec5-0af7-59ba-bebb-bb0a822c8afa-attr-4-comment" class="er entityLabel"/><rect height="22" width="54.095550537109375" y="112" x="0" class="er attributeBoxOdd"/><text style="dominant-baseline: middle; font-size: 10.2px;" transform="translate(5,123)" y="0" x="0" id="text-entity-Event-5fcfcec5-0af7-59ba-bebb-bb0a822c8afa-attr-5-type" class="er entityLabel">Int</text><rect height="22" width="65.57656860351562" y="112" x="54.095550537109375" class="er attributeBoxOdd"/><text style="dominant-baseline: middle; font-size: 10.2px;" transform="translate(59.095550537109375,123)" y="0" x="0" id="text-entity-Event-5fcfcec5-0af7-59ba-bebb-bb0a822c8afa-attr-5-name" class="er entityLabel">type_id</text><rect height="22" width="22.68768310546875" y="112" x="119.672119140625" class="er attributeBoxOdd"/><text style="dominant-baseline: middle; font-size: 10.2px;" transform="translate(124.672119140625,123)" y="0" x="0" id="text-entity-Event-5fcfcec5-0af7-59ba-bebb-bb0a822c8afa-attr-5-comment" class="er entityLabel"/><rect height="22" width="54.095550537109375" y="134" x="0" class="er attributeBoxEven"/><text style="dominant-baseline: middle; font-size: 10.2px;" transform="translate(5,145)" y="0" x="0" id="text-entity-Event-5fcfcec5-0af7-59ba-bebb-bb0a822c8afa-attr-6-type" class="er entityLabel">Int</text><rect height="22" width="65.57656860351562" y="134" x="54.095550537109375" class="er attributeBoxEven"/><text style="dominant-baseline: middle; font-size: 10.2px;" transform="translate(59.095550537109375,145)" y="0" x="0" id="text-entity-Event-5fcfcec5-0af7-59ba-bebb-bb0a822c8afa-attr-6-name" class="er entityLabel">location_id</text><rect height="22" width="22.68768310546875" y="134" x="119.672119140625" class="er attributeBoxEven"/><text style="dominant-baseline: middle; font-size: 10.2px;" transform="translate(124.672119140625,145)" y="0" x="0" id="text-entity-Event-5fcfcec5-0af7-59ba-bebb-bb0a822c8afa-attr-6-comment" class="er entityLabel"/><rect height="22" width="54.095550537109375" y="156" x="0" class="er attributeBoxOdd"/><text style="dominant-baseline: middle; font-size: 10.2px;" transform="translate(5,167)" y="0" x="0" id="text-entity-Event-5fcfcec5-0af7-59ba-bebb-bb0a822c8afa-attr-7-type" class="er entityLabel">DateTime</text><rect height="22" width="65.57656860351562" y="156" x="54.095550537109375" class="er attributeBoxOdd"/><text style="dominant-baseline: middle; font-size: 10.2px;" transform="translate(59.095550537109375,167)" y="0" x="0" id="text-entity-Event-5fcfcec5-0af7-59ba-bebb-bb0a822c8afa-attr-7-name" class="er entityLabel">date</text><rect height="22" width="22.68768310546875" y="156" x="119.672119140625" class="er attributeBoxOdd"/><text style="dominant-baseline: middle; font-size: 10.2px;" transform="translate(124.672119140625,167)" y="0" x="0" id="text-entity-Event-5fcfcec5-0af7-59ba-bebb-bb0a822c8afa-attr-7-comment" class="er entityLabel"/></g><g transform="translate(257.721923828125,466 )" id="entity-Participant-1b15d7dd-2236-59ff-b08e-47bf86f1c4ca"><rect height="178" width="115.54393005371094" y="0" x="0" class="er entityBox"/><text style="dominant-baseline: middle; text-anchor: middle; font-size: 12px;" transform="translate(57.77196502685547,12)" y="0" x="0" id="text-entity-Participant-1b15d7dd-2236-59ff-b08e-47bf86f1c4ca" class="er entityLabel">Participant</text><rect height="22" width="37.39605712890625" y="24" x="0" class="er attributeBoxOdd"/><text style="dominant-baseline: middle; font-size: 10.2px;" transform="translate(5,35)" y="0" x="0" id="text-entity-Participant-1b15d7dd-2236-59ff-b08e-47bf86f1c4ca-attr-1-type" class="er entityLabel">Int</text><rect height="22" width="55.46018981933594" y="24" x="37.39605712890625" class="er attributeBoxOdd"/><text style="dominant-baseline: middle; font-size: 10.2px;" transform="translate(42.39605712890625,35)" y="0" x="0" id="text-entity-Participant-1b15d7dd-2236-59ff-b08e-47bf86f1c4ca-attr-1-name" class="er entityLabel">p_id</text><rect height="22" width="22.68768310546875" y="24" x="92.85624694824219" class="er attributeBoxOdd"/><text style="dominant-baseline: middle; font-size: 10.2px;" transform="translate(97.85624694824219,35)" y="0" x="0" id="text-entity-Participant-1b15d7dd-2236-59ff-b08e-47bf86f1c4ca-attr-1-comment" class="er entityLabel">PK</text><rect height="22" width="37.39605712890625" y="46" x="0" class="er attributeBoxEven"/><text style="dominant-baseline: middle; font-size: 10.2px;" transform="translate(5,57)" y="0" x="0" id="text-entity-Participant-1b15d7dd-2236-59ff-b08e-47bf86f1c4ca-attr-2-type" class="er entityLabel">Int</text><rect height="22" width="55.46018981933594" y="46" x="37.39605712890625" class="er attributeBoxEven"/><text style="dominant-baseline: middle; font-size: 10.2px;" transform="translate(42.39605712890625,57)" y="0" x="0" id="text-entity-Participant-1b15d7dd-2236-59ff-b08e-47bf86f1c4ca-attr-2-name" class="er entityLabel">event_id</text><rect height="22" width="22.68768310546875" y="46" x="92.85624694824219" class="er attributeBoxEven"/><text style="dominant-baseline: middle; font-size: 10.2px;" transform="translate(97.85624694824219,57)" y="0" x="0" id="text-entity-Participant-1b15d7dd-2236-59ff-b08e-47bf86f1c4ca-attr-2-comment" class="er entityLabel"/><rect height="22" width="37.39605712890625" y="68" x="0" class="er attributeBoxOdd"/><text style="dominant-baseline: middle; font-size: 10.2px;" transform="translate(5,79)" y="0" x="0" id="text-entity-Participant-1b15d7dd-2236-59ff-b08e-47bf86f1c4ca-attr-3-type" class="er entityLabel">String</text><rect height="22" width="55.46018981933594" y="68" x="37.39605712890625" class="er attributeBoxOdd"/><text style="dominant-baseline: middle; font-size: 10.2px;" transform="translate(42.39605712890625,79)" y="0" x="0" id="text-entity-Participant-1b15d7dd-2236-59ff-b08e-47bf86f1c4ca-attr-3-name" class="er entityLabel">fullname</text><rect height="22" width="22.68768310546875" y="68" x="92.85624694824219" class="er attributeBoxOdd"/><text style="dominant-baseline: middle; font-size: 10.2px;" transform="translate(97.85624694824219,79)" y="0" x="0" id="text-entity-Participant-1b15d7dd-2236-59ff-b08e-47bf86f1c4ca-attr-3-comment" class="er entityLabel"/><rect height="22" width="37.39605712890625" y="90" x="0" class="er attributeBoxEven"/><text style="dominant-baseline: middle; font-size: 10.2px;" transform="translate(5,101)" y="0" x="0" id="text-entity-Participant-1b15d7dd-2236-59ff-b08e-47bf86f1c4ca-attr-4-type" class="er entityLabel">String</text><rect height="22" width="55.46018981933594" y="90" x="37.39605712890625" class="er attributeBoxEven"/><text style="dominant-baseline: middle; font-size: 10.2px;" transform="translate(42.39605712890625,101)" y="0" x="0" id="text-entity-Participant-1b15d7dd-2236-59ff-b08e-47bf86f1c4ca-attr-4-name" class="er entityLabel">email</text><rect height="22" width="22.68768310546875" y="90" x="92.85624694824219" class="er attributeBoxEven"/><text style="dominant-baseline: middle; font-size: 10.2px;" transform="translate(97.85624694824219,101)" y="0" x="0" id="text-entity-Participant-1b15d7dd-2236-59ff-b08e-47bf86f1c4ca-attr-4-comment" class="er entityLabel"/><rect height="22" width="37.39605712890625" y="112" x="0" class="er attributeBoxOdd"/><text style="dominant-baseline: middle; font-size: 10.2px;" transform="translate(5,123)" y="0" x="0" id="text-entity-Participant-1b15d7dd-2236-59ff-b08e-47bf86f1c4ca-attr-5-type" class="er entityLabel">String</text><rect height="22" width="55.46018981933594" y="112" x="37.39605712890625" class="er attributeBoxOdd"/><text style="dominant-baseline: middle; font-size: 10.2px;" transform="translate(42.39605712890625,123)" y="0" x="0" id="text-entity-Participant-1b15d7dd-2236-59ff-b08e-47bf86f1c4ca-attr-5-name" class="er entityLabel">mobile</text><rect height="22" width="22.68768310546875" y="112" x="92.85624694824219" class="er attributeBoxOdd"/><text style="dominant-baseline: middle; font-size: 10.2px;" transform="translate(97.85624694824219,123)" y="0" x="0" id="text-entity-Participant-1b15d7dd-2236-59ff-b08e-47bf86f1c4ca-attr-5-comment" class="er entityLabel"/><rect height="22" width="37.39605712890625" y="134" x="0" class="er attributeBoxEven"/><text style="dominant-baseline: middle; font-size: 10.2px;" transform="translate(5,145)" y="0" x="0" id="text-entity-Participant-1b15d7dd-2236-59ff-b08e-47bf86f1c4ca-attr-6-type" class="er entityLabel">String</text><rect height="22" width="55.46018981933594" y="134" x="37.39605712890625" class="er attributeBoxEven"/><text style="dominant-baseline: middle; font-size: 10.2px;" transform="translate(42.39605712890625,145)" y="0" x="0" id="text-entity-Participant-1b15d7dd-2236-59ff-b08e-47bf86f1c4ca-attr-6-name" class="er entityLabel">college</text><rect height="22" width="22.68768310546875" y="134" x="92.85624694824219" class="er attributeBoxEven"/><text style="dominant-baseline: middle; font-size: 10.2px;" transform="translate(97.85624694824219,145)" y="0" x="0" id="text-entity-Participant-1b15d7dd-2236-59ff-b08e-47bf86f1c4ca-attr-6-comment" class="er entityLabel"/><rect height="22" width="37.39605712890625" y="156" x="0" class="er attributeBoxOdd"/><text style="dominant-baseline: middle; font-size: 10.2px;" transform="translate(5,167)" y="0" x="0" id="text-entity-Participant-1b15d7dd-2236-59ff-b08e-47bf86f1c4ca-attr-7-type" class="er entityLabel">Int</text><rect height="22" width="55.46018981933594" y="156" x="37.39605712890625" class="er attributeBoxOdd"/><text style="dominant-baseline: middle; font-size: 10.2px;" transform="translate(42.39605712890625,167)" y="0" x="0" id="text-entity-Participant-1b15d7dd-2236-59ff-b08e-47bf86f1c4ca-attr-7-name" class="er entityLabel">branch_id</text><rect height="22" width="22.68768310546875" y="156" x="92.85624694824219" class="er attributeBoxOdd"/><text style="dominant-baseline: middle; font-size: 10.2px;" transform="translate(97.85624694824219,167)" y="0" x="0" id="text-entity-Participant-1b15d7dd-2236-59ff-b08e-47bf86f1c4ca-attr-7-comment" class="er entityLabel"/></g><g transform="translate(352.43889236450195,20 )" id="entity-Admin-ac960f68-b1b2-5358-9d08-eeaa5108f92f"><rect height="68" width="114.71220397949219" y="0" x="0" class="er entityBox"/><text style="dominant-baseline: middle; text-anchor: middle; font-size: 12px;" transform="translate(57.356101989746094,12)" y="0" x="0" id="text-entity-Admin-ac960f68-b1b2-5358-9d08-eeaa5108f92f" class="er entityLabel">Admin</text><rect height="22" width="37.39605712890625" y="24" x="0" class="er attributeBoxOdd"/><text style="dominant-baseline: middle; font-size: 10.2px;" transform="translate(5,35)" y="0" x="0" id="text-entity-Admin-ac960f68-b1b2-5358-9d08-eeaa5108f92f-attr-1-type" class="er entityLabel">String</text><rect height="22" width="54.62846374511719" y="24" x="37.39605712890625" class="er attributeBoxOdd"/><text style="dominant-baseline: middle; font-size: 10.2px;" transform="translate(42.39605712890625,35)" y="0" x="0" id="text-entity-Admin-ac960f68-b1b2-5358-9d08-eeaa5108f92f-attr-1-name" class="er entityLabel">username</text><rect height="22" width="22.68768310546875" y="24" x="92.02452087402344" class="er attributeBoxOdd"/><text style="dominant-baseline: middle; font-size: 10.2px;" transform="translate(97.02452087402344,35)" y="0" x="0" id="text-entity-Admin-ac960f68-b1b2-5358-9d08-eeaa5108f92f-attr-1-comment" class="er entityLabel">PK</text><rect height="22" width="37.39605712890625" y="46" x="0" class="er attributeBoxEven"/><text style="dominant-baseline: middle; font-size: 10.2px;" transform="translate(5,57)" y="0" x="0" id="text-entity-Admin-ac960f68-b1b2-5358-9d08-eeaa5108f92f-attr-2-type" class="er entityLabel">String</text><rect height="22" width="54.62846374511719" y="46" x="37.39605712890625" class="er attributeBoxEven"/><text style="dominant-baseline: middle; font-size: 10.2px;" transform="translate(42.39605712890625,57)" y="0" x="0" id="text-entity-Admin-ac960f68-b1b2-5358-9d08-eeaa5108f92f-attr-2-name" class="er entityLabel">password</text><rect height="22" width="22.68768310546875" y="46" x="92.02452087402344" class="er attributeBoxEven"/><text style="dominant-baseline: middle; font-size: 10.2px;" transform="translate(97.02452087402344,57)" y="0" x="0" id="text-entity-Admin-ac960f68-b1b2-5358-9d08-eeaa5108f92f-attr-2-comment" class="er entityLabel"/></g><rect height="14" width="30.40625" y="125.92422485351562" x="101.63374328613281" class="er relationshipLabelBox"/><text style="text-anchor: middle; dominant-baseline: middle; font-size: 12px;" y="132.92422485351562" x="116.83686828613281" id="rel1" class="er relationshipLabel">Event</text><rect height="14" width="30.40625" y="436.7885437011719" x="118.06240844726562" class="er relationshipLabelBox"/><text style="text-anchor: middle; dominant-baseline: middle; font-size: 12px;" y="443.7885437011719" x="133.26553344726562" id="rel2" class="er relationshipLabel">Event</text><rect height="14" width="59.1875" y="687.4857788085938" x="368.5688781738281" class="er relationshipLabelBox"/><text style="text-anchor: middle; dominant-baseline: middle; font-size: 12px;" y="694.4857788085938" x="398.1626281738281" id="rel3" class="er relationshipLabel">Participant</text><rect height="14" width="24.361328125" y="130.97567749023438" x="187.17071533203125" class="er relationshipLabelBox"/><text style="text-anchor: middle; dominant-baseline: middle; font-size: 12px;" y="137.97567749023438" x="199.35137939453125" id="rel4" class="er relationshipLabel">type</text><rect height="14" width="43.84375" y="415.2588806152344" x="41.121402740478516" class="er relationshipLabelBox"/><text style="text-anchor: middle; dominant-baseline: middle; font-size: 12px;" y="422.2588806152344" x="63.043277740478516" id="rel5" class="er relationshipLabel">location</text><rect height="14" width="59.1875" y="408.75018310546875" x="227.83193969726562" class="er relationshipLabelBox"/><text style="text-anchor: middle; dominant-baseline: middle; font-size: 12px;" y="415.75018310546875" x="257.4256896972656" id="rel6" class="er relationshipLabel">Participant</text><rect height="14" width="30.5234375" y="376.1479797363281" x="341.42376708984375" class="er relationshipLabelBox"/><text style="text-anchor: middle; dominant-baseline: middle; font-size: 12px;" y="383.1479797363281" x="356.68548583984375" id="rel7" class="er relationshipLabel">event</text><rect height="14" width="37.15234375" y="687" x="296.917724609375" class="er relationshipLabelBox"/><text style="text-anchor: middle; dominant-baseline: middle; font-size: 12px;" y="694" x="315.493896484375" id="rel8" class="er relationshipLabel">branch</text></svg>