<svg aria-roledescription="er" role="graphics-document document" viewBox="0 0 796.5734252929688 920" style="max-width: 796.573px; background-color: white;" xmlns:xlink="http://www.w3.org/1999/xlink" xmlns="http://www.w3.org/2000/svg" width="100%" id="my-svg"><style>#my-svg{font-family:"trebuchet ms",verdana,arial,sans-serif;font-size:16px;fill:#000000;}#my-svg .error-icon{fill:#552222;}#my-svg .error-text{fill:#552222;stroke:#552222;}#my-svg .edge-thickness-normal{stroke-width:2px;}#my-svg .edge-thickness-thick{stroke-width:3.5px;}#my-svg .edge-pattern-solid{stroke-dasharray:0;}#my-svg .edge-pattern-dashed{stroke-dasharray:3;}#my-svg .edge-pattern-dotted{stroke-dasharray:2;}#my-svg .marker{fill:#000000;stroke:#000000;}#my-svg .marker.cross{stroke:#000000;}#my-svg svg{font-family:"trebuchet ms",verdana,arial,sans-serif;font-size:16px;}#my-svg .entityBox{fill:#cde498;stroke:#13540c;}#my-svg .attributeBoxOdd{fill:#ffffff;stroke:#13540c;}#my-svg .attributeBoxEven{fill:#f2f2f2;stroke:#13540c;}#my-svg .relationshipLabelBox{fill:hsl(78.1578947368, 58.4615384615%, 84.5098039216%);opacity:0.7;background-color:hsl(78.1578947368, 58.4615384615%, 84.5098039216%);}#my-svg .relationshipLabelBox rect{opacity:0.5;}#my-svg .relationshipLine{stroke:#000000;}#my-svg .entityTitleText{text-anchor:middle;font-size:18px;fill:#000000;}#my-svg #MD_PARENT_START{fill:#f5f5f5!important;stroke:#000000!important;stroke-width:1;}#my-svg #MD_PARENT_END{fill:#f5f5f5!important;stroke:#000000!important;stroke-width:1;}#my-svg :root{--mermaid-font-family:"trebuchet ms",verdana,arial,sans-serif;}</style><g/><defs><marker orient="auto" markerHeight="240" markerWidth="190" refY="7" refX="0" id="MD_PARENT_START"><path d="M 18,7 L9,13 L1,7 L9,1 Z"/></marker></defs><defs><marker orient="auto" markerHeight="28" markerWidth="20" refY="7" refX="19" id="MD_PARENT_END"><path d="M 18,7 L9,13 L1,7 L9,1 Z"/></marker></defs><defs><marker orient="auto" markerHeight="18" markerWidth="18" refY="9" refX="0" id="ONLY_ONE_START"><path d="M9,0 L9,18 M15,0 L15,18" fill="none" stroke="gray"/></marker></defs><defs><marker orient="auto" markerHeight="18" markerWidth="18" refY="9" refX="18" id="ONLY_ONE_END"><path d="M3,0 L3,18 M9,0 L9,18" fill="none" stroke="gray"/></marker></defs><defs><marker orient="auto" markerHeight="18" markerWidth="30" refY="9" refX="0" id="ZERO_OR_ONE_START"><circle r="6" cy="9" cx="21" fill="white" stroke="gray"/><path d="M9,0 L9,18" fill="none" stroke="gray"/></marker></defs><defs><marker orient="auto" markerHeight="18" markerWidth="30" refY="9" refX="30" id="ZERO_OR_ONE_END"><circle r="6" cy="9" cx="9" fill="white" stroke="gray"/><path d="M21,0 L21,18" fill="none" stroke="gray"/></marker></defs><defs><marker orient="auto" markerHeight="36" markerWidth="45" refY="18" refX="18" id="ONE_OR_MORE_START"><path d="M0,18 Q 18,0 36,18 Q 18,36 0,18 M42,9 L42,27" fill="none" stroke="gray"/></marker></defs><defs><marker orient="auto" markerHeight="36" markerWidth="45" refY="18" refX="27" id="ONE_OR_MORE_END"><path d="M3,9 L3,27 M9,18 Q27,0 45,18 Q27,36 9,18" fill="none" stroke="gray"/></marker></defs><defs><marker orient="auto" markerHeight="36" markerWidth="57" refY="18" refX="18" id="ZERO_OR_MORE_START"><circle r="6" cy="18" cx="48" fill="white" stroke="gray"/><path d="M0,18 Q18,0 36,18 Q18,36 0,18" fill="none" stroke="gray"/></marker></defs><defs><marker orient="auto" markerHeight="36" markerWidth="57" refY="18" refX="39" id="ZERO_OR_MORE_END"><circle r="6" cy="18" cx="9" fill="white" stroke="gray"/><path d="M21,18 Q39,0 57,18 Q39,36 21,18" fill="none" stroke="gray"/></marker></defs><path style="stroke: gray; fill: none;" marker-start="url(#ZERO_OR_ONE_START)" marker-end="url(#ONLY_ONE_END)" d="M485.15129470825195,132.3878794056356L420.25002034505206,151.656566171363C355.34874598185223,170.9252529370904,225.54619725545248,209.4626264685452,160.6449228922526,244.39797990093928C95.74364852905273,279.3333333333333,95.74364852905273,310.6666666666667,95.74364852905273,326.3333333333333L95.74364852905273,342" class="er relationshipLine"/><path style="stroke: gray; fill: none;" marker-start="url(#ZERO_OR_MORE_START)" marker-end="url(#ZERO_OR_MORE_END)" d="M485.15129470825195,152.79925717163087L456.61390177408856,168.66604764302573C428.0765088399251,184.53283811442057,371.0017229715983,216.2664190572103,342.4643300374349,240.46654286193848C313.9269371032715,264.6666666666667,313.9269371032715,281.3333333333333,313.9269371032715,289.6666666666667L313.9269371032715,298" class="er relationshipLine"/><path style="stroke: gray; fill: none;" marker-start="url(#ZERO_OR_MORE_START)" marker-end="url(#ZERO_OR_MORE_END)" d="M563.9269371032715,198L563.9269371032715,206.33333333333334C563.9269371032715,214.66666666666666,563.9269371032715,231.33333333333334,563.9269371032715,261C563.9269371032715,290.6666666666667,563.9269371032715,333.3333333333333,563.9269371032715,376C563.9269371032715,418.6666666666667,563.9269371032715,461.3333333333333,563.9269371032715,500.3333333333333C563.9269371032715,539.3333333333334,563.9269371032715,574.6666666666666,563.9269371032715,610C563.9269371032715,645.3333333333334,563.9269371032715,680.6666666666666,552.8030382792155,708.1001748518997C541.6791394551595,735.5336830371328,519.4313418070475,755.0673660742656,508.3074429829915,764.8342075928322L497.18354415893555,774.6010491113985" class="er relationshipLine"/><path style="stroke: gray; fill: none;" marker-start="url(#ZERO_OR_ONE_START)" marker-end="url(#ONLY_ONE_END)" d="M380.4401512145996,351.67516741071427L427.6879488627116,334.39597284226187C474.93574651082355,317.11677827380953,569.4313418070475,282.55838913690474,610.683935618229,256.945861235119C651.9365294294106,231.33333333333334,639.9461217555496,214.66666666666666,633.9509179186192,206.33333333333334L627.9557140816887,198" class="er relationshipLine"/><path style="stroke: gray; fill: none;" marker-start="url(#ZERO_OR_ONE_START)" marker-end="url(#ONLY_ONE_END)" d="M247.41372299194336,412.8065755241736L219.9477621714274,428.005479603478C192.48180135091147,443.2043836827824,137.54987970987955,473.60219184139123,110.0839188893636,497.13442925402893C82.61795806884766,520.6666666666666,82.61795806884766,537.3333333333334,82.61795806884766,545.6666666666666L82.61795806884766,554" class="er relationshipLine"/><path style="stroke: gray; fill: none;" marker-start="url(#ZERO_OR_MORE_START)" marker-end="url(#ZERO_OR_MORE_END)" d="M283.4581871032715,454L280.20297876993817,462.3333333333333C276.9477704366048,470.6666666666667,270.43735376993817,487.3333333333333,267.1821454366048,513.3333333333334C263.9269371032715,539.3333333333334,263.9269371032715,574.6666666666666,263.9269371032715,610C263.9269371032715,645.3333333333334,263.9269371032715,680.6666666666666,280.63196690877277,710.054868158381C297.3369967142741,739.4430696500955,330.7470563252767,762.8861393001911,347.452086130778,774.6076741252386L364.1571159362793,786.3292089502864" class="er relationshipLine"/><path style="stroke: gray; fill: none;" marker-start="url(#ZERO_OR_MORE_START)" marker-end="url(#ZERO_OR_MORE_END)" d="M145.2359161376953,586.4049353202992L181.684419631958,572.6707794335827C218.1329231262207,558.9366235468661,291.0299301147461,531.468311773433,324.2232252756755,509.4008225533832C357.4165204366048,487.3333333333333,350.90610376993817,470.6666666666667,347.6508954366048,462.3333333333333L344.3956871032715,454" class="er relationshipLine"/><path style="stroke: gray; fill: none;" marker-start="url(#ZERO_OR_MORE_START)" marker-end="url(#ZERO_OR_MORE_END)" d="M56.202863729225015,666L52.27204611916212,674.3333333333334C48.34122850909923,682.6666666666666,40.47959328897344,699.3333333333334,91.80530199014915,723.9082821763964C143.13101069132486,748.4832310194594,253.6440633138021,780.9664620389188,308.9005896250407,797.2080775486484L364.1571159362793,813.4496930583781" class="er relationshipLine"/><path style="stroke: gray; fill: none;" marker-start="url(#ZERO_OR_ONE_START)" marker-end="url(#ONLY_ONE_END)" d="M497.18354415893555,809.6484868228717L541.6407763163248,794.0404056857265C586.0980084737142,778.4323245485812,675.0124727884928,747.2161622742906,719.4697049458822,713.9414144704787C763.9269371032715,680.6666666666666,763.9269371032715,645.3333333333334,763.9269371032715,610C763.9269371032715,574.6666666666666,763.9269371032715,539.3333333333334,763.9269371032715,500.3333333333333C763.9269371032715,461.3333333333333,763.9269371032715,418.6666666666667,763.9269371032715,376C763.9269371032715,333.3333333333333,763.9269371032715,290.6666666666667,743.7228775024414,255.29151191075644C723.5188179016113,219.9163571548462,683.1106986999512,191.8327143096924,662.9066390991211,177.79089288711552L642.702579498291,163.7490714645386" class="er relationshipLine"/><path style="stroke: gray; fill: none;" marker-start="url(#ZERO_OR_ONE_START)" marker-end="url(#ONLY_ONE_END)" d="M449.7147118658082,766L452.0834160720521,757.6666666666666C454.452120278296,749.3333333333334,459.1895286907837,732.6666666666666,461.5582328970276,706.6666666666666C463.9269371032715,680.6666666666666,463.9269371032715,645.3333333333334,463.9269371032715,610C463.9269371032715,574.6666666666666,463.9269371032715,539.3333333333334,450.01247278849286,509.7929904513889C436.0980084737142,480.25264756944443,408.2690798441569,456.50529513888887,394.35461552937824,444.6316189236111L380.4401512145996,432.7579427083333" class="er relationshipLine"/><path style="stroke: gray; fill: none;" marker-start="url(#ZERO_OR_ONE_START)" marker-end="url(#ONLY_ONE_END)" d="M364.1571159362793,806.8903401460601L325.56725629170734,791.7419501217167C286.97739664713544,776.5935600973735,209.79767735799155,746.2967800486867,167.2770001033567,722.81505669101C124.75632284872188,699.3333333333334,116.89468762859609,682.6666666666666,112.9638700185332,674.3333333333334L109.0330524084703,666" class="er relationshipLine"/><g transform="translate(44.07357406616211,342 )" id="entity-Role-8dbdbbc4-0419-5464-aae6-f142fb2ece67"><rect height="68" width="103.34014892578125" y="0" x="0" class="er entityBox"/><text style="dominant-baseline: middle; text-anchor: middle; font-size: 12px;" transform="translate(51.670074462890625,12)" y="0" x="0" id="text-entity-Role-8dbdbbc4-0419-5464-aae6-f142fb2ece67" class="er entityLabel">Role</text><rect height="22" width="51.670074462890625" y="24" x="0" class="er attributeBoxOdd"/><text style="dominant-baseline: middle; font-size: 10.2px;" transform="translate(5,35)" y="0" x="0" id="text-entity-Role-8dbdbbc4-0419-5464-aae6-f142fb2ece67-attr-1-type" class="er entityLabel">STUDENT</text><rect height="22" width="51.670074462890625" y="24" x="51.670074462890625" class="er attributeBoxOdd"/><text style="dominant-baseline: middle; font-size: 10.2px;" transform="translate(56.670074462890625,35)" y="0" x="0" id="text-entity-Role-8dbdbbc4-0419-5464-aae6-f142fb2ece67-attr-1-name" class="er entityLabel">STUDENT</text><rect height="22" width="51.670074462890625" y="46" x="0" class="er attributeBoxEven"/><text style="dominant-baseline: middle; font-size: 10.2px;" transform="translate(5,57)" y="0" x="0" id="text-entity-Role-8dbdbbc4-0419-5464-aae6-f142fb2ece67-attr-2-type" class="er entityLabel">FACULTY</text><rect height="22" width="51.670074462890625" y="46" x="51.670074462890625" class="er attributeBoxEven"/><text style="dominant-baseline: middle; font-size: 10.2px;" transform="translate(56.670074462890625,57)" y="0" x="0" id="text-entity-Role-8dbdbbc4-0419-5464-aae6-f142fb2ece67-attr-2-name" class="er entityLabel">FACULTY</text></g><g transform="translate(485.15129470825195,20 )" id="entity-User-818c511a-4a32-5484-ba70-875d765a9175"><rect height="178" width="157.55128479003906" y="0" x="0" class="er entityBox"/><text style="dominant-baseline: middle; text-anchor: middle; font-size: 12px;" transform="translate(78.77564239501953,12)" y="0" x="0" id="text-entity-User-818c511a-4a32-5484-ba70-875d765a9175" class="er entityLabel">User</text><rect height="22" width="54.095550537109375" y="24" x="0" class="er attributeBoxOdd"/><text style="dominant-baseline: middle; font-size: 10.2px;" transform="translate(5,35)" y="0" x="0" id="text-entity-User-818c511a-4a32-5484-ba70-875d765a9175-attr-1-type" class="er entityLabel">String</text><rect height="22" width="56.243194580078125" y="24" x="54.095550537109375" class="er attributeBoxOdd"/><text style="dominant-baseline: middle; font-size: 10.2px;" transform="translate(59.095550537109375,35)" y="0" x="0" id="text-entity-User-818c511a-4a32-5484-ba70-875d765a9175-attr-1-name" class="er entityLabel">id</text><rect height="22" width="47.21253967285156" y="24" x="110.3387451171875" class="er attributeBoxOdd"/><text style="dominant-baseline: middle; font-size: 10.2px;" transform="translate(115.3387451171875,35)" y="0" x="0" id="text-entity-User-818c511a-4a32-5484-ba70-875d765a9175-attr-1-comment" class="er entityLabel">PK</text><rect height="22" width="54.095550537109375" y="46" x="0" class="er attributeBoxEven"/><text style="dominant-baseline: middle; font-size: 10.2px;" transform="translate(5,57)" y="0" x="0" id="text-entity-User-818c511a-4a32-5484-ba70-875d765a9175-attr-2-type" class="er entityLabel">String</text><rect height="22" width="56.243194580078125" y="46" x="54.095550537109375" class="er attributeBoxEven"/><text style="dominant-baseline: middle; font-size: 10.2px;" transform="translate(59.095550537109375,57)" y="0" x="0" id="text-entity-User-818c511a-4a32-5484-ba70-875d765a9175-attr-2-name" class="er entityLabel">name</text><rect height="22" width="47.21253967285156" y="46" x="110.3387451171875" class="er attributeBoxEven"/><text style="dominant-baseline: middle; font-size: 10.2px;" transform="translate(115.3387451171875,57)" y="0" x="0" id="text-entity-User-818c511a-4a32-5484-ba70-875d765a9175-attr-2-comment" class="er entityLabel"/><rect height="22" width="54.095550537109375" y="68" x="0" class="er attributeBoxOdd"/><text style="dominant-baseline: middle; font-size: 10.2px;" transform="translate(5,79)" y="0" x="0" id="text-entity-User-818c511a-4a32-5484-ba70-875d765a9175-attr-3-type" class="er entityLabel">String</text><rect height="22" width="56.243194580078125" y="68" x="54.095550537109375" class="er attributeBoxOdd"/><text style="dominant-baseline: middle; font-size: 10.2px;" transform="translate(59.095550537109375,79)" y="0" x="0" id="text-entity-User-818c511a-4a32-5484-ba70-875d765a9175-attr-3-name" class="er entityLabel">rollno</text><rect height="22" width="47.21253967285156" y="68" x="110.3387451171875" class="er attributeBoxOdd"/><text style="dominant-baseline: middle; font-size: 10.2px;" transform="translate(115.3387451171875,79)" y="0" x="0" id="text-entity-User-818c511a-4a32-5484-ba70-875d765a9175-attr-3-comment" class="er entityLabel">nullable</text><rect height="22" width="54.095550537109375" y="90" x="0" class="er attributeBoxEven"/><text style="dominant-baseline: middle; font-size: 10.2px;" transform="translate(5,101)" y="0" x="0" id="text-entity-User-818c511a-4a32-5484-ba70-875d765a9175-attr-4-type" class="er entityLabel">String</text><rect height="22" width="56.243194580078125" y="90" x="54.095550537109375" class="er attributeBoxEven"/><text style="dominant-baseline: middle; font-size: 10.2px;" transform="translate(59.095550537109375,101)" y="0" x="0" id="text-entity-User-818c511a-4a32-5484-ba70-875d765a9175-attr-4-name" class="er entityLabel">email</text><rect height="22" width="47.21253967285156" y="90" x="110.3387451171875" class="er attributeBoxEven"/><text style="dominant-baseline: middle; font-size: 10.2px;" transform="translate(115.3387451171875,101)" y="0" x="0" id="text-entity-User-818c511a-4a32-5484-ba70-875d765a9175-attr-4-comment" class="er entityLabel">nullable</text><rect height="22" width="54.095550537109375" y="112" x="0" class="er attributeBoxOdd"/><text style="dominant-baseline: middle; font-size: 10.2px;" transform="translate(5,123)" y="0" x="0" id="text-entity-User-818c511a-4a32-5484-ba70-875d765a9175-attr-5-type" class="er entityLabel">String</text><rect height="22" width="56.243194580078125" y="112" x="54.095550537109375" class="er attributeBoxOdd"/><text style="dominant-baseline: middle; font-size: 10.2px;" transform="translate(59.095550537109375,123)" y="0" x="0" id="text-entity-User-818c511a-4a32-5484-ba70-875d765a9175-attr-5-name" class="er entityLabel">password</text><rect height="22" width="47.21253967285156" y="112" x="110.3387451171875" class="er attributeBoxOdd"/><text style="dominant-baseline: middle; font-size: 10.2px;" transform="translate(115.3387451171875,123)" y="0" x="0" id="text-entity-User-818c511a-4a32-5484-ba70-875d765a9175-attr-5-comment" class="er entityLabel"/><rect height="22" width="54.095550537109375" y="134" x="0" class="er attributeBoxEven"/><text style="dominant-baseline: middle; font-size: 10.2px;" transform="translate(5,145)" y="0" x="0" id="text-entity-User-818c511a-4a32-5484-ba70-875d765a9175-attr-6-type" class="er entityLabel">Role</text><rect height="22" width="56.243194580078125" y="134" x="54.095550537109375" class="er attributeBoxEven"/><text style="dominant-baseline: middle; font-size: 10.2px;" transform="translate(59.095550537109375,145)" y="0" x="0" id="text-entity-User-818c511a-4a32-5484-ba70-875d765a9175-attr-6-name" class="er entityLabel">role</text><rect height="22" width="47.21253967285156" y="134" x="110.3387451171875" class="er attributeBoxEven"/><text style="dominant-baseline: middle; font-size: 10.2px;" transform="translate(115.3387451171875,145)" y="0" x="0" id="text-entity-User-818c511a-4a32-5484-ba70-875d765a9175-attr-6-comment" class="er entityLabel"/><rect height="22" width="54.095550537109375" y="156" x="0" class="er attributeBoxOdd"/><text style="dominant-baseline: middle; font-size: 10.2px;" transform="translate(5,167)" y="0" x="0" id="text-entity-User-818c511a-4a32-5484-ba70-875d765a9175-attr-7-type" class="er entityLabel">DateTime</text><rect height="22" width="56.243194580078125" y="156" x="54.095550537109375" class="er attributeBoxOdd"/><text style="dominant-baseline: middle; font-size: 10.2px;" transform="translate(59.095550537109375,167)" y="0" x="0" id="text-entity-User-818c511a-4a32-5484-ba70-875d765a9175-attr-7-name" class="er entityLabel">createdAt</text><rect height="22" width="47.21253967285156" y="156" x="110.3387451171875" class="er attributeBoxOdd"/><text style="dominant-baseline: middle; font-size: 10.2px;" transform="translate(115.3387451171875,167)" y="0" x="0" id="text-entity-User-818c511a-4a32-5484-ba70-875d765a9175-attr-7-comment" class="er entityLabel"/></g><g transform="translate(247.41372299194336,298 )" id="entity-Class-72a8fe3b-dda1-500b-81e8-fe5cfcc9ca17"><rect height="156" width="133.02642822265625" y="0" x="0" class="er entityBox"/><text style="dominant-baseline: middle; text-anchor: middle; font-size: 12px;" transform="translate(66.51321411132812,12)" y="0" x="0" id="text-entity-Class-72a8fe3b-dda1-500b-81e8-fe5cfcc9ca17" class="er entityLabel">Class</text><rect height="22" width="54.095550537109375" y="24" x="0" class="er attributeBoxOdd"/><text style="dominant-baseline: middle; font-size: 10.2px;" transform="translate(5,35)" y="0" x="0" id="text-entity-Class-72a8fe3b-dda1-500b-81e8-fe5cfcc9ca17-attr-1-type" class="er entityLabel">String</text><rect height="22" width="56.243194580078125" y="24" x="54.095550537109375" class="er attributeBoxOdd"/><text style="dominant-baseline: middle; font-size: 10.2px;" transform="translate(59.095550537109375,35)" y="0" x="0" id="text-entity-Class-72a8fe3b-dda1-500b-81e8-fe5cfcc9ca17-attr-1-name" class="er entityLabel">id</text><rect height="22" width="22.68768310546875" y="24" x="110.3387451171875" class="er attributeBoxOdd"/><text style="dominant-baseline: middle; font-size: 10.2px;" transform="translate(115.3387451171875,35)" y="0" x="0" id="text-entity-Class-72a8fe3b-dda1-500b-81e8-fe5cfcc9ca17-attr-1-comment" class="er entityLabel">PK</text><rect height="22" width="54.095550537109375" y="46" x="0" class="er attributeBoxEven"/><text style="dominant-baseline: middle; font-size: 10.2px;" transform="translate(5,57)" y="0" x="0" id="text-entity-Class-72a8fe3b-dda1-500b-81e8-fe5cfcc9ca17-attr-2-type" class="er entityLabel">String</text><rect height="22" width="56.243194580078125" y="46" x="54.095550537109375" class="er attributeBoxEven"/><text style="dominant-baseline: middle; font-size: 10.2px;" transform="translate(59.095550537109375,57)" y="0" x="0" id="text-entity-Class-72a8fe3b-dda1-500b-81e8-fe5cfcc9ca17-attr-2-name" class="er entityLabel">subjectId</text><rect height="22" width="22.68768310546875" y="46" x="110.3387451171875" class="er attributeBoxEven"/><text style="dominant-baseline: middle; font-size: 10.2px;" transform="translate(115.3387451171875,57)" y="0" x="0" id="text-entity-Class-72a8fe3b-dda1-500b-81e8-fe5cfcc9ca17-attr-2-comment" class="er entityLabel"/><rect height="22" width="54.095550537109375" y="68" x="0" class="er attributeBoxOdd"/><text style="dominant-baseline: middle; font-size: 10.2px;" transform="translate(5,79)" y="0" x="0" id="text-entity-Class-72a8fe3b-dda1-500b-81e8-fe5cfcc9ca17-attr-3-type" class="er entityLabel">String</text><rect height="22" width="56.243194580078125" y="68" x="54.095550537109375" class="er attributeBoxOdd"/><text style="dominant-baseline: middle; font-size: 10.2px;" transform="translate(59.095550537109375,79)" y="0" x="0" id="text-entity-Class-72a8fe3b-dda1-500b-81e8-fe5cfcc9ca17-attr-3-name" class="er entityLabel">userId</text><rect height="22" width="22.68768310546875" y="68" x="110.3387451171875" class="er attributeBoxOdd"/><text style="dominant-baseline: middle; font-size: 10.2px;" transform="translate(115.3387451171875,79)" y="0" x="0" id="text-entity-Class-72a8fe3b-dda1-500b-81e8-fe5cfcc9ca17-attr-3-comment" class="er entityLabel"/><rect height="22" width="54.095550537109375" y="90" x="0" class="er attributeBoxEven"/><text style="dominant-baseline: middle; font-size: 10.2px;" transform="translate(5,101)" y="0" x="0" id="text-entity-Class-72a8fe3b-dda1-500b-81e8-fe5cfcc9ca17-attr-4-type" class="er entityLabel">DateTime</text><rect height="22" width="56.243194580078125" y="90" x="54.095550537109375" class="er attributeBoxEven"/><text style="dominant-baseline: middle; font-size: 10.2px;" transform="translate(59.095550537109375,101)" y="0" x="0" id="text-entity-Class-72a8fe3b-dda1-500b-81e8-fe5cfcc9ca17-attr-4-name" class="er entityLabel">start</text><rect height="22" width="22.68768310546875" y="90" x="110.3387451171875" class="er attributeBoxEven"/><text style="dominant-baseline: middle; font-size: 10.2px;" transform="translate(115.3387451171875,101)" y="0" x="0" id="text-entity-Class-72a8fe3b-dda1-500b-81e8-fe5cfcc9ca17-attr-4-comment" class="er entityLabel"/><rect height="22" width="54.095550537109375" y="112" x="0" class="er attributeBoxOdd"/><text style="dominant-baseline: middle; font-size: 10.2px;" transform="translate(5,123)" y="0" x="0" id="text-entity-Class-72a8fe3b-dda1-500b-81e8-fe5cfcc9ca17-attr-5-type" class="er entityLabel">DateTime</text><rect height="22" width="56.243194580078125" y="112" x="54.095550537109375" class="er attributeBoxOdd"/><text style="dominant-baseline: middle; font-size: 10.2px;" transform="translate(59.095550537109375,123)" y="0" x="0" id="text-entity-Class-72a8fe3b-dda1-500b-81e8-fe5cfcc9ca17-attr-5-name" class="er entityLabel">duration</text><rect height="22" width="22.68768310546875" y="112" x="110.3387451171875" class="er attributeBoxOdd"/><text style="dominant-baseline: middle; font-size: 10.2px;" transform="translate(115.3387451171875,123)" y="0" x="0" id="text-entity-Class-72a8fe3b-dda1-500b-81e8-fe5cfcc9ca17-attr-5-comment" class="er entityLabel"/><rect height="22" width="54.095550537109375" y="134" x="0" class="er attributeBoxEven"/><text style="dominant-baseline: middle; font-size: 10.2px;" transform="translate(5,145)" y="0" x="0" id="text-entity-Class-72a8fe3b-dda1-500b-81e8-fe5cfcc9ca17-attr-6-type" class="er entityLabel">DateTime</text><rect height="22" width="56.243194580078125" y="134" x="54.095550537109375" class="er attributeBoxEven"/><text style="dominant-baseline: middle; font-size: 10.2px;" transform="translate(59.095550537109375,145)" y="0" x="0" id="text-entity-Class-72a8fe3b-dda1-500b-81e8-fe5cfcc9ca17-attr-6-name" class="er entityLabel">createdAt</text><rect height="22" width="22.68768310546875" y="134" x="110.3387451171875" class="er attributeBoxEven"/><text style="dominant-baseline: middle; font-size: 10.2px;" transform="translate(115.3387451171875,145)" y="0" x="0" id="text-entity-Class-72a8fe3b-dda1-500b-81e8-fe5cfcc9ca17-attr-6-comment" class="er entityLabel"/></g><g transform="translate(20,554 )" id="entity-Subject-6517b414-ef1d-5647-8292-82448c2e16de"><rect height="112" width="125.23591613769531" y="0" x="0" class="er entityBox"/><text style="dominant-baseline: middle; text-anchor: middle; font-size: 12px;" transform="translate(62.617958068847656,12)" y="0" x="0" id="text-entity-Subject-6517b414-ef1d-5647-8292-82448c2e16de" class="er entityLabel">Subject</text><rect height="22" width="37.39605712890625" y="24" x="0" class="er attributeBoxOdd"/><text style="dominant-baseline: middle; font-size: 10.2px;" transform="translate(5,35)" y="0" x="0" id="text-entity-Subject-6517b414-ef1d-5647-8292-82448c2e16de-attr-1-type" class="er entityLabel">String</text><rect height="22" width="65.15217590332031" y="24" x="37.39605712890625" class="er attributeBoxOdd"/><text style="dominant-baseline: middle; font-size: 10.2px;" transform="translate(42.39605712890625,35)" y="0" x="0" id="text-entity-Subject-6517b414-ef1d-5647-8292-82448c2e16de-attr-1-name" class="er entityLabel">id</text><rect height="22" width="22.68768310546875" y="24" x="102.54823303222656" class="er attributeBoxOdd"/><text style="dominant-baseline: middle; font-size: 10.2px;" transform="translate(107.54823303222656,35)" y="0" x="0" id="text-entity-Subject-6517b414-ef1d-5647-8292-82448c2e16de-attr-1-comment" class="er entityLabel">PK</text><rect height="22" width="37.39605712890625" y="46" x="0" class="er attributeBoxEven"/><text style="dominant-baseline: middle; font-size: 10.2px;" transform="translate(5,57)" y="0" x="0" id="text-entity-Subject-6517b414-ef1d-5647-8292-82448c2e16de-attr-2-type" class="er entityLabel">Int</text><rect height="22" width="65.15217590332031" y="46" x="37.39605712890625" class="er attributeBoxEven"/><text style="dominant-baseline: middle; font-size: 10.2px;" transform="translate(42.39605712890625,57)" y="0" x="0" id="text-entity-Subject-6517b414-ef1d-5647-8292-82448c2e16de-attr-2-name" class="er entityLabel">sem</text><rect height="22" width="22.68768310546875" y="46" x="102.54823303222656" class="er attributeBoxEven"/><text style="dominant-baseline: middle; font-size: 10.2px;" transform="translate(107.54823303222656,57)" y="0" x="0" id="text-entity-Subject-6517b414-ef1d-5647-8292-82448c2e16de-attr-2-comment" class="er entityLabel"/><rect height="22" width="37.39605712890625" y="68" x="0" class="er attributeBoxOdd"/><text style="dominant-baseline: middle; font-size: 10.2px;" transform="translate(5,79)" y="0" x="0" id="text-entity-Subject-6517b414-ef1d-5647-8292-82448c2e16de-attr-3-type" class="er entityLabel">String</text><rect height="22" width="65.15217590332031" y="68" x="37.39605712890625" class="er attributeBoxOdd"/><text style="dominant-baseline: middle; font-size: 10.2px;" transform="translate(42.39605712890625,79)" y="0" x="0" id="text-entity-Subject-6517b414-ef1d-5647-8292-82448c2e16de-attr-3-name" class="er entityLabel">coursename</text><rect height="22" width="22.68768310546875" y="68" x="102.54823303222656" class="er attributeBoxOdd"/><text style="dominant-baseline: middle; font-size: 10.2px;" transform="translate(107.54823303222656,79)" y="0" x="0" id="text-entity-Subject-6517b414-ef1d-5647-8292-82448c2e16de-attr-3-comment" class="er entityLabel"/><rect height="22" width="37.39605712890625" y="90" x="0" class="er attributeBoxEven"/><text style="dominant-baseline: middle; font-size: 10.2px;" transform="translate(5,101)" y="0" x="0" id="text-entity-Subject-6517b414-ef1d-5647-8292-82448c2e16de-attr-4-type" class="er entityLabel">String</text><rect height="22" width="65.15217590332031" y="90" x="37.39605712890625" class="er attributeBoxEven"/><text style="dominant-baseline: middle; font-size: 10.2px;" transform="translate(42.39605712890625,101)" y="0" x="0" id="text-entity-Subject-6517b414-ef1d-5647-8292-82448c2e16de-attr-4-name" class="er entityLabel">courseId</text><rect height="22" width="22.68768310546875" y="90" x="102.54823303222656" class="er attributeBoxEven"/><text style="dominant-baseline: middle; font-size: 10.2px;" transform="translate(107.54823303222656,101)" y="0" x="0" id="text-entity-Subject-6517b414-ef1d-5647-8292-82448c2e16de-attr-4-comment" class="er entityLabel"/></g><g transform="translate(364.1571159362793,766 )" id="entity-Attendence-a7f8d9b0-9fae-59a6-9087-f0dd5dcd4fa7"><rect height="134" width="133.02642822265625" y="0" x="0" class="er entityBox"/><text style="dominant-baseline: middle; text-anchor: middle; font-size: 12px;" transform="translate(66.51321411132812,12)" y="0" x="0" id="text-entity-Attendence-a7f8d9b0-9fae-59a6-9087-f0dd5dcd4fa7" class="er entityLabel">Attendence</text><rect height="22" width="54.095550537109375" y="24" x="0" class="er attributeBoxOdd"/><text style="dominant-baseline: middle; font-size: 10.2px;" transform="translate(5,35)" y="0" x="0" id="text-entity-Attendence-a7f8d9b0-9fae-59a6-9087-f0dd5dcd4fa7-attr-1-type" class="er entityLabel">String</text><rect height="22" width="56.243194580078125" y="24" x="54.095550537109375" class="er attributeBoxOdd"/><text style="dominant-baseline: middle; font-size: 10.2px;" transform="translate(59.095550537109375,35)" y="0" x="0" id="text-entity-Attendence-a7f8d9b0-9fae-59a6-9087-f0dd5dcd4fa7-attr-1-name" class="er entityLabel">id</text><rect height="22" width="22.68768310546875" y="24" x="110.3387451171875" class="er attributeBoxOdd"/><text style="dominant-baseline: middle; font-size: 10.2px;" transform="translate(115.3387451171875,35)" y="0" x="0" id="text-entity-Attendence-a7f8d9b0-9fae-59a6-9087-f0dd5dcd4fa7-attr-1-comment" class="er entityLabel">PK</text><rect height="22" width="54.095550537109375" y="46" x="0" class="er attributeBoxEven"/><text style="dominant-baseline: middle; font-size: 10.2px;" transform="translate(5,57)" y="0" x="0" id="text-entity-Attendence-a7f8d9b0-9fae-59a6-9087-f0dd5dcd4fa7-attr-2-type" class="er entityLabel">String</text><rect height="22" width="56.243194580078125" y="46" x="54.095550537109375" class="er attributeBoxEven"/><text style="dominant-baseline: middle; font-size: 10.2px;" transform="translate(59.095550537109375,57)" y="0" x="0" id="text-entity-Attendence-a7f8d9b0-9fae-59a6-9087-f0dd5dcd4fa7-attr-2-name" class="er entityLabel">userId</text><rect height="22" width="22.68768310546875" y="46" x="110.3387451171875" class="er attributeBoxEven"/><text style="dominant-baseline: middle; font-size: 10.2px;" transform="translate(115.3387451171875,57)" y="0" x="0" id="text-entity-Attendence-a7f8d9b0-9fae-59a6-9087-f0dd5dcd4fa7-attr-2-comment" class="er entityLabel"/><rect height="22" width="54.095550537109375" y="68" x="0" class="er attributeBoxOdd"/><text style="dominant-baseline: middle; font-size: 10.2px;" transform="translate(5,79)" y="0" x="0" id="text-entity-Attendence-a7f8d9b0-9fae-59a6-9087-f0dd5dcd4fa7-attr-3-type" class="er entityLabel">String</text><rect height="22" width="56.243194580078125" y="68" x="54.095550537109375" class="er attributeBoxOdd"/><text style="dominant-baseline: middle; font-size: 10.2px;" transform="translate(59.095550537109375,79)" y="0" x="0" id="text-entity-Attendence-a7f8d9b0-9fae-59a6-9087-f0dd5dcd4fa7-attr-3-name" class="er entityLabel">classId</text><rect height="22" width="22.68768310546875" y="68" x="110.3387451171875" class="er attributeBoxOdd"/><text style="dominant-baseline: middle; font-size: 10.2px;" transform="translate(115.3387451171875,79)" y="0" x="0" id="text-entity-Attendence-a7f8d9b0-9fae-59a6-9087-f0dd5dcd4fa7-attr-3-comment" class="er entityLabel"/><rect height="22" width="54.095550537109375" y="90" x="0" class="er attributeBoxEven"/><text style="dominant-baseline: middle; font-size: 10.2px;" transform="translate(5,101)" y="0" x="0" id="text-entity-Attendence-a7f8d9b0-9fae-59a6-9087-f0dd5dcd4fa7-attr-4-type" class="er entityLabel">String</text><rect height="22" width="56.243194580078125" y="90" x="54.095550537109375" class="er attributeBoxEven"/><text style="dominant-baseline: middle; font-size: 10.2px;" transform="translate(59.095550537109375,101)" y="0" x="0" id="text-entity-Attendence-a7f8d9b0-9fae-59a6-9087-f0dd5dcd4fa7-attr-4-name" class="er entityLabel">subjectId</text><rect height="22" width="22.68768310546875" y="90" x="110.3387451171875" class="er attributeBoxEven"/><text style="dominant-baseline: middle; font-size: 10.2px;" transform="translate(115.3387451171875,101)" y="0" x="0" id="text-entity-Attendence-a7f8d9b0-9fae-59a6-9087-f0dd5dcd4fa7-attr-4-comment" class="er entityLabel"/><rect height="22" width="54.095550537109375" y="112" x="0" class="er attributeBoxOdd"/><text style="dominant-baseline: middle; font-size: 10.2px;" transform="translate(5,123)" y="0" x="0" id="text-entity-Attendence-a7f8d9b0-9fae-59a6-9087-f0dd5dcd4fa7-attr-5-type" class="er entityLabel">DateTime</text><rect height="22" width="56.243194580078125" y="112" x="54.095550537109375" class="er attributeBoxOdd"/><text style="dominant-baseline: middle; font-size: 10.2px;" transform="translate(59.095550537109375,123)" y="0" x="0" id="text-entity-Attendence-a7f8d9b0-9fae-59a6-9087-f0dd5dcd4fa7-attr-5-name" class="er entityLabel">createdAt</text><rect height="22" width="22.68768310546875" y="112" x="110.3387451171875" class="er attributeBoxOdd"/><text style="dominant-baseline: middle; font-size: 10.2px;" transform="translate(115.3387451171875,123)" y="0" x="0" id="text-entity-Attendence-a7f8d9b0-9fae-59a6-9087-f0dd5dcd4fa7-attr-5-comment" class="er entityLabel"/></g><rect height="14" width="55.66796875" y="195.39236450195312" x="233.0262451171875" class="er relationshipLabelBox"/><text style="text-anchor: middle; dominant-baseline: middle; font-size: 12px;" y="202.39236450195312" x="260.8602294921875" id="rel1" class="er relationshipLabel">enum:role</text><rect height="14" width="26.87890625" y="204.43637084960938" x="369.9399719238281" class="er relationshipLabelBox"/><text style="text-anchor: middle; dominant-baseline: middle; font-size: 12px;" y="211.43637084960938" x="383.3794250488281" id="rel2" class="er relationshipLabel">Class</text><rect height="14" width="63.423828125" y="490.46173095703125" x="532.2150268554688" class="er relationshipLabelBox"/><text style="text-anchor: middle; dominant-baseline: middle; font-size: 12px;" y="497.46173095703125" x="563.9269409179688" id="rel3" class="er relationshipLabel">Attendence</text><rect height="14" width="23.958984375" y="287.4195556640625" x="520.1824340820312" class="er relationshipLabelBox"/><text style="text-anchor: middle; dominant-baseline: middle; font-size: 12px;" y="294.4195556640625" x="532.1619262695312" id="rel4" class="er relationshipLabel">user</text><rect height="14" width="39.986328125" y="462.4736328125" x="128.82260131835938" class="er relationshipLabelBox"/><text style="text-anchor: middle; dominant-baseline: middle; font-size: 12px;" y="469.4736328125" x="148.81576538085938" id="rel5" class="er relationshipLabel">subject</text><rect height="14" width="63.423828125" y="632.0967407226562" x="232.5657958984375" class="er relationshipLabelBox"/><text style="text-anchor: middle; dominant-baseline: middle; font-size: 12px;" y="639.0967407226562" x="264.2777099609375" id="rel6" class="er relationshipLabel">Attendence</text><rect height="14" width="26.87890625" y="531.5726318359375" x="253.7578125" class="er relationshipLabelBox"/><text style="text-anchor: middle; dominant-baseline: middle; font-size: 12px;" y="538.5726318359375" x="267.197265625" id="rel7" class="er relationshipLabel">Class</text><rect height="14" width="63.423828125" y="753.2587890625" x="156.6489715576172" class="er relationshipLabelBox"/><text style="text-anchor: middle; dominant-baseline: middle; font-size: 12px;" y="760.2587890625" x="188.3608856201172" id="rel8" class="er relationshipLabel">Attendence</text><rect height="14" width="23.958984375" y="536.042724609375" x="751.9474487304688" class="er relationshipLabelBox"/><text style="text-anchor: middle; dominant-baseline: middle; font-size: 12px;" y="543.042724609375" x="763.9269409179688" id="rel9" class="er relationshipLabel">user</text><rect height="14" width="25.642578125" y="578.3424682617188" x="450.92877197265625" class="er relationshipLabelBox"/><text style="text-anchor: middle; dominant-baseline: middle; font-size: 12px;" y="585.3424682617188" x="463.75006103515625" id="rel10" class="er relationshipLabel">class</text><rect height="14" width="39.986328125" y="744.1290893554688" x="206.29115295410156" class="er relationshipLabelBox"/><text style="text-anchor: middle; dominant-baseline: middle; font-size: 12px;" y="751.1290893554688" x="226.28431701660156" id="rel11" class="er relationshipLabel">subject</text></svg>